<svg id="svg" version="1.1" xmlns="http://www.w3.org/2000/svg" xmlns:xlink="http://www.w3.org/1999/xlink" width="400" height="400" viewBox="0, 0, 400,400"><g id="svgg"><path id="path0" d="M160.319 114.945 C 154.733 117.424,155.549 124.821,161.600 126.551 C 162.150 126.708,163.588 127.107,164.795 127.438 C 168.341 128.409,169.644 130.249,168.170 132.200 C 166.756 134.071,160.800 132.722,160.800 130.530 C 160.800 130.154,160.160 130.000,158.600 130.000 C 156.208 130.000,156.045 130.210,156.827 132.274 C 159.522 139.389,173.641 137.823,173.593 130.415 C 173.577 127.821,169.512 124.034,166.715 124.007 C 165.078 123.991,161.713 122.365,161.260 121.371 C 159.744 118.045,165.769 116.497,168.078 119.619 C 169.277 121.241,172.800 121.420,172.800 119.859 C 172.800 115.858,165.097 112.824,160.319 114.945 M178.267 114.667 C 178.120 114.813,178.000 119.760,178.000 125.659 L 178.000 136.385 178.952 136.624 C 181.672 137.306,182.183 136.858,182.400 133.600 L 182.600 130.600 185.854 130.358 C 196.943 129.533,199.032 117.118,188.464 114.851 C 186.196 114.365,178.704 114.229,178.267 114.667 M205.381 114.930 C 193.632 119.457,196.883 136.779,209.485 136.796 C 220.368 136.811,225.623 124.577,217.912 117.178 C 215.319 114.691,208.963 113.550,205.381 114.930 M224.900 114.661 C 224.596 114.786,224.400 115.636,224.400 116.833 L 224.400 118.800 227.520 118.800 C 231.804 118.800,231.600 118.337,231.600 128.072 L 231.600 136.385 232.552 136.624 C 233.075 136.755,234.020 136.803,234.652 136.731 L 235.800 136.600 235.908 128.019 C 236.032 118.160,235.733 118.815,240.121 118.806 L 243.242 118.800 243.121 116.700 L 243.000 114.600 234.200 114.528 C 229.360 114.488,225.175 114.548,224.900 114.661 M187.640 118.853 C 192.957 120.626,190.632 126.657,184.762 126.323 L 182.600 126.200 182.483 122.634 C 182.399 120.051,182.509 118.977,182.883 118.740 C 183.627 118.268,186.059 118.326,187.640 118.853 M212.040 118.854 C 217.097 120.544,218.458 127.524,214.396 130.942 C 209.972 134.665,203.439 132.105,202.894 126.434 C 202.366 120.937,206.937 117.149,212.040 118.854 M0.000 200.000 L 0.000 255.200 200.000 255.200 L 400.000 255.200 400.000 200.000 L 400.000 144.800 200.000 144.800 L 0.000 144.800 0.000 200.000 M397.600 200.000 L 397.600 252.800 200.000 252.800 L 2.400 252.800 2.400 200.000 L 2.400 147.200 200.000 147.200 L 397.600 147.200 397.600 200.000 M11.385 155.699 C 11.280 155.975,11.240 175.910,11.297 200.000 L 11.400 243.800 105.600 243.800 L 199.800 243.800 199.800 199.600 L 199.800 155.400 105.688 155.299 C 30.608 155.219,11.537 155.300,11.385 155.699 M130.906 189.599 C 135.074 191.158,136.999 194.193,136.998 199.200 C 136.993 212.511,117.715 213.029,116.869 199.740 C 116.375 191.991,123.513 186.833,130.906 189.599 M34.589 190.500 C 34.905 191.215,35.949 194.286,36.908 197.324 C 37.867 200.362,38.818 202.882,39.022 202.924 C 39.359 202.993,41.047 198.876,43.256 192.600 C 44.315 189.591,44.632 189.200,46.006 189.200 C 47.236 189.200,47.157 189.055,49.782 196.200 C 52.160 202.673,52.280 202.960,52.663 203.088 C 52.865 203.155,53.726 201.003,54.578 198.305 C 57.354 189.512,57.498 189.200,58.805 189.200 C 60.569 189.200,60.548 189.462,58.197 196.660 C 56.986 200.367,55.611 204.615,55.142 206.100 C 54.296 208.778,54.277 208.800,52.842 208.800 C 51.215 208.800,51.651 209.624,47.977 199.600 C 46.006 194.225,45.855 193.992,45.286 195.478 C 44.631 197.186,40.765 207.728,40.574 208.324 C 40.465 208.664,39.885 208.805,38.924 208.724 L 37.441 208.600 34.483 199.488 C 32.855 194.476,31.625 190.111,31.749 189.788 C 32.187 188.646,33.965 189.092,34.589 190.500 M68.205 190.100 C 68.327 190.595,68.375 194.960,68.313 199.800 L 68.200 208.600 66.900 208.725 L 65.600 208.851 65.600 199.025 L 65.600 189.200 66.792 189.200 C 67.697 189.200,68.038 189.417,68.205 190.100 M89.524 190.683 L 89.648 191.965 86.524 192.083 L 83.400 192.200 83.292 200.524 L 83.184 208.847 81.692 208.724 L 80.200 208.600 80.000 200.400 L 79.800 192.200 76.804 192.000 C 74.324 191.834,73.784 191.675,73.670 191.077 C 73.317 189.219,73.510 189.176,81.691 189.291 L 89.400 189.400 89.524 190.683 M97.914 193.296 C 98.050 197.910,97.749 197.694,103.800 197.517 L 107.800 197.400 108.000 193.400 L 108.200 189.400 109.400 189.400 L 110.600 189.400 110.707 199.100 L 110.814 208.800 109.421 208.800 L 108.028 208.800 107.914 204.700 L 107.800 200.600 103.000 200.600 L 98.200 200.600 98.086 204.700 L 97.972 208.800 96.586 208.800 L 95.200 208.800 95.200 199.267 C 95.200 189.160,95.210 189.098,96.785 189.282 C 97.785 189.398,97.802 189.457,97.914 193.296 M145.683 195.700 C 145.923 204.538,146.801 206.400,150.729 206.400 C 152.187 206.400,152.708 206.172,153.840 205.040 L 155.200 203.680 155.200 196.889 C 155.200 189.583,155.360 188.997,157.278 189.269 C 158.512 189.444,158.897 201.098,157.779 204.462 C 155.803 210.412,146.827 211.141,143.991 205.582 C 143.287 204.203,143.200 203.214,143.200 196.616 L 143.200 189.200 144.353 189.200 L 145.506 189.200 145.683 195.700 M179.524 190.683 L 179.648 191.965 176.524 192.083 L 173.400 192.200 173.292 200.500 L 173.184 208.800 171.800 208.800 L 170.416 208.800 170.308 200.500 L 170.200 192.200 167.137 192.084 C 163.906 191.961,163.302 191.570,163.821 189.935 C 164.045 189.228,164.521 189.189,171.730 189.291 L 179.400 189.400 179.524 190.683 M238.580 190.109 C 238.472 190.389,238.433 194.664,238.492 199.609 L 238.600 208.600 244.000 208.585 C 253.480 208.558,257.856 203.949,252.418 199.719 C 251.868 199.291,251.899 199.063,252.700 197.640 C 254.626 194.220,253.521 191.283,249.905 190.209 C 247.265 189.425,238.871 189.351,238.580 190.109 M258.000 198.938 C 258.000 209.928,257.268 208.800,264.400 208.800 C 270.904 208.800,270.800 208.843,270.800 206.157 L 270.800 204.000 267.009 204.000 L 263.218 204.000 263.109 196.900 L 263.000 189.800 260.500 189.681 L 258.000 189.562 258.000 198.938 M274.500 189.860 C 274.121 190.017,274.000 192.276,274.000 199.226 L 274.000 208.385 274.900 208.607 C 275.395 208.730,278.320 208.778,281.400 208.715 L 287.000 208.600 287.000 206.600 L 287.000 204.600 283.078 204.485 L 279.155 204.370 279.278 202.685 L 279.400 201.000 282.721 200.883 L 286.042 200.767 285.921 198.883 L 285.800 197.000 282.477 196.883 L 279.154 196.767 279.277 195.283 L 279.400 193.800 283.121 193.685 L 286.843 193.569 286.721 191.685 L 286.600 189.800 280.800 189.726 C 277.610 189.686,274.775 189.746,274.500 189.860 M291.300 189.865 C 290.920 190.018,290.800 192.273,290.800 199.226 L 290.800 208.385 291.738 208.620 C 292.254 208.750,293.379 208.798,294.238 208.728 L 295.800 208.600 295.913 203.900 C 295.975 201.315,296.134 199.200,296.266 199.200 C 296.607 199.200,297.895 200.735,298.851 202.283 C 300.733 205.327,303.796 204.267,306.361 199.684 C 307.062 198.431,307.399 199.640,307.600 204.133 L 307.800 208.600 309.155 208.729 C 309.901 208.801,310.936 208.752,311.455 208.622 L 312.400 208.385 312.400 198.992 L 312.400 189.600 310.428 189.600 L 308.455 189.600 305.346 194.000 C 301.636 199.251,301.594 199.258,298.807 195.107 C 295.065 189.533,293.987 188.781,291.300 189.865 M317.200 198.973 L 317.200 208.385 318.138 208.620 C 318.654 208.750,319.779 208.798,320.638 208.728 L 322.200 208.600 322.200 199.200 L 322.200 189.800 319.700 189.681 L 317.200 189.562 317.200 198.973 M328.359 190.505 C 323.632 193.654,325.335 198.870,331.693 200.717 C 335.018 201.683,335.807 202.321,335.448 203.751 C 335.002 205.526,331.782 205.435,330.810 203.619 C 330.342 202.744,326.308 202.378,325.821 203.166 C 324.445 205.392,329.069 208.800,333.465 208.800 C 342.657 208.800,343.542 199.914,334.600 197.402 C 331.182 196.442,329.926 195.034,331.280 193.680 C 332.359 192.601,335.600 193.478,335.600 194.849 C 335.600 195.072,336.585 195.189,337.900 195.120 C 340.436 194.988,340.749 194.315,339.302 192.106 C 337.631 189.556,331.197 188.615,328.359 190.505 M344.900 189.856 C 344.521 190.016,344.400 192.278,344.400 199.226 L 344.400 208.385 345.338 208.620 C 345.854 208.750,346.979 208.798,347.838 208.728 L 349.400 208.600 349.518 205.213 C 349.653 201.322,349.742 201.212,352.800 201.212 C 355.858 201.212,355.947 201.322,356.082 205.213 L 356.200 208.600 357.762 208.728 C 358.621 208.798,359.746 208.750,360.262 208.620 L 361.200 208.385 361.200 199.200 L 361.200 190.015 360.262 189.780 C 359.746 189.650,358.621 189.602,357.762 189.672 L 356.200 189.800 356.000 193.200 L 355.800 196.600 352.800 196.600 L 349.800 196.600 349.600 193.200 L 349.400 189.800 347.400 189.722 C 346.300 189.680,345.175 189.740,344.900 189.856 M123.169 192.910 C 117.174 196.949,119.792 206.369,126.916 206.393 C 133.193 206.415,136.545 199.162,132.487 194.339 C 130.359 191.810,125.831 191.115,123.169 192.910 M248.300 194.290 C 249.541 195.936,248.117 197.300,245.342 197.124 L 243.400 197.000 243.279 195.333 C 243.182 194.006,243.304 193.625,243.879 193.463 C 245.137 193.107,247.781 193.601,248.300 194.290 M248.469 201.462 C 250.323 203.141,248.883 204.800,245.571 204.800 L 243.200 204.800 243.200 203.067 C 243.200 202.113,243.320 201.213,243.467 201.067 C 244.028 200.505,247.735 200.798,248.469 201.462 M184.581 262.930 C 172.832 267.457,176.083 284.779,188.685 284.796 C 199.568 284.811,204.823 272.577,197.112 265.178 C 194.519 262.691,188.163 261.550,184.581 262.930 M205.781 262.906 C 205.674 263.185,205.634 268.180,205.693 274.006 L 205.800 284.600 206.948 284.731 C 209.677 285.043,209.956 284.720,210.084 281.096 L 210.200 277.800 211.996 277.800 L 213.791 277.800 215.820 281.200 L 217.849 284.600 219.721 284.722 C 222.934 284.931,223.006 284.644,220.723 280.701 L 218.699 277.204 220.324 275.628 C 224.742 271.340,223.043 264.550,217.160 262.984 C 214.357 262.238,206.059 262.181,205.781 262.906 M191.240 266.854 C 196.297 268.544,197.658 275.524,193.596 278.942 C 189.172 282.665,182.639 280.105,182.094 274.434 C 181.566 268.937,186.137 265.149,191.240 266.854 M216.769 267.436 C 219.956 270.117,217.836 273.600,213.018 273.600 L 210.000 273.600 210.000 270.267 C 210.000 266.278,209.904 266.400,213.036 266.400 C 215.145 266.400,215.732 266.563,216.769 267.436 " stroke="none" fill="#060606" fill-rule="evenodd"></path><path id="path1" d="M0.000 72.200 L 0.000 144.400 200.000 144.400 L 400.000 144.400 400.000 72.200 L 400.000 0.000 200.000 0.000 L 0.000 0.000 0.000 72.200 M168.040 114.055 C 171.023 115.054,173.831 118.370,173.524 120.531 C 173.298 122.115,168.644 122.033,167.816 120.430 C 166.761 118.391,164.314 117.744,162.489 119.023 C 160.386 120.496,161.661 121.903,166.400 123.343 C 172.281 125.129,174.334 127.320,173.862 131.307 C 172.838 139.952,155.240 139.353,156.075 130.700 C 156.281 128.562,160.655 128.555,161.679 130.691 C 162.994 133.433,168.000 133.330,168.000 130.560 C 168.000 129.359,166.883 128.654,163.600 127.782 C 158.334 126.384,156.000 124.189,156.000 120.633 C 156.000 115.427,162.132 112.077,168.040 114.055 M213.240 114.040 C 226.227 118.237,224.345 136.265,210.792 137.494 C 201.113 138.372,194.439 128.540,198.900 119.974 C 201.515 114.953,207.897 112.312,213.240 114.040 M191.495 115.179 C 199.250 119.584,196.029 130.061,186.705 130.754 L 183.400 131.000 183.283 133.885 L 183.166 136.770 181.856 137.016 C 181.136 137.151,179.928 137.203,179.173 137.131 L 177.800 137.000 177.693 126.006 C 177.635 119.959,177.682 114.764,177.798 114.462 C 178.203 113.407,189.407 113.993,191.495 115.179 M243.367 114.243 C 243.835 114.422,244.000 115.043,244.000 116.629 C 244.000 119.284,243.535 119.600,239.626 119.600 L 236.800 119.600 236.800 128.153 C 236.800 137.832,237.046 137.182,233.380 137.195 C 230.809 137.203,230.800 137.171,230.800 127.920 L 230.800 119.600 228.300 119.595 C 224.166 119.586,224.000 119.479,224.000 116.820 C 224.000 115.562,224.120 114.413,224.267 114.267 C 224.600 113.933,242.503 113.911,243.367 114.243 M183.467 119.467 C 183.320 119.613,183.200 121.053,183.200 122.667 L 183.200 125.600 185.511 125.600 C 189.023 125.600,190.947 123.036,189.294 120.560 C 188.535 119.424,184.303 118.630,183.467 119.467 M206.565 119.956 C 199.399 124.326,205.295 135.066,212.792 131.299 C 217.011 129.180,217.196 122.493,213.104 119.998 C 211.393 118.955,208.240 118.935,206.565 119.956 M2.800 200.000 L 2.800 252.400 200.000 252.400 L 397.200 252.400 397.200 200.000 L 397.200 147.600 200.000 147.600 L 2.800 147.600 2.800 200.000 M199.920 155.280 C 200.428 155.788,200.650 242.026,200.148 243.900 L 199.907 244.800 105.596 244.800 C 19.966 244.800,11.263 244.742,11.043 244.167 C 10.520 242.805,10.773 155.278,11.300 155.065 C 12.490 154.585,199.438 154.798,199.920 155.280 M337.200 189.741 C 339.351 190.838,340.800 192.818,340.800 194.659 L 340.800 196.000 338.275 196.000 C 335.934 196.000,335.686 195.913,334.863 194.800 C 333.894 193.490,332.969 193.296,331.792 194.157 C 330.641 194.998,331.587 195.842,334.746 196.791 C 339.880 198.334,341.427 200.056,341.110 203.874 C 340.462 211.693,325.200 211.258,325.200 203.420 C 325.200 201.929,330.757 201.822,331.405 203.300 C 331.894 204.415,334.018 204.742,334.783 203.820 C 335.515 202.938,334.726 202.111,332.653 201.589 C 326.566 200.054,324.297 197.392,325.539 193.245 C 326.733 189.260,332.726 187.459,337.200 189.741 M251.518 190.126 C 254.425 191.699,255.252 195.616,253.149 197.854 C 252.277 198.783,252.258 198.889,252.903 199.249 C 255.773 200.856,255.300 206.115,252.115 208.000 C 250.479 208.969,242.198 209.626,239.057 209.037 L 237.600 208.764 237.600 199.215 C 237.600 191.960,237.720 189.614,238.100 189.447 C 239.409 188.871,250.208 189.418,251.518 190.126 M263.357 189.833 C 263.491 190.181,263.600 193.331,263.600 196.833 L 263.600 203.200 267.353 203.200 C 271.571 203.200,271.583 203.210,271.595 206.620 C 271.603 209.123,271.387 209.200,264.400 209.200 C 256.492 209.200,257.200 210.169,257.200 199.353 C 257.200 188.512,256.983 189.200,260.400 189.200 C 262.506 189.200,263.169 189.342,263.357 189.833 M287.200 191.785 L 287.200 194.370 283.500 194.485 C 280.008 194.594,279.793 194.651,279.672 195.500 C 279.549 196.368,279.657 196.400,282.692 196.400 C 286.193 196.400,286.803 196.724,286.795 198.580 C 286.782 201.433,286.631 201.558,283.057 201.685 C 279.880 201.797,279.800 201.825,279.800 202.800 C 279.800 203.790,279.837 203.801,283.700 203.914 L 287.600 204.029 287.600 206.372 C 287.600 208.139,287.445 208.774,286.967 208.957 C 286.143 209.274,275.057 209.274,274.233 208.957 C 273.574 208.704,273.224 190.109,273.867 189.467 C 274.013 189.320,277.073 189.200,280.667 189.200 L 287.200 189.200 287.200 191.785 M295.424 189.506 C 295.658 189.668,297.065 191.510,298.551 193.600 C 301.862 198.255,301.520 198.271,305.100 193.300 L 308.053 189.200 310.384 189.200 C 313.356 189.200,313.200 188.638,313.200 199.353 C 313.200 209.472,313.288 209.200,310.000 209.200 C 306.955 209.200,306.800 208.960,306.800 204.239 L 306.800 200.238 305.300 202.307 C 303.134 205.296,300.376 205.412,298.357 202.600 C 296.558 200.096,296.400 200.270,296.400 204.757 C 296.400 209.194,296.396 209.200,293.400 209.200 C 290.208 209.200,290.400 209.837,290.400 199.224 C 290.400 194.004,290.520 189.613,290.667 189.467 C 291.027 189.106,294.893 189.138,295.424 189.506 M322.557 189.833 C 323.042 191.097,322.827 208.213,322.320 208.720 C 321.697 209.343,317.503 209.343,316.880 208.720 C 316.373 208.213,316.158 191.097,316.643 189.833 C 316.831 189.342,317.494 189.200,319.600 189.200 C 321.706 189.200,322.369 189.342,322.557 189.833 M350.000 192.600 L 350.200 195.800 352.800 195.800 L 355.400 195.800 355.600 192.600 L 355.800 189.400 358.600 189.400 L 361.400 189.400 361.507 198.972 C 361.627 209.659,361.756 209.184,358.733 209.194 C 355.644 209.204,355.600 209.151,355.600 205.357 L 355.600 202.000 352.800 202.000 L 350.000 202.000 350.000 205.357 C 350.000 209.127,349.943 209.200,347.000 209.200 C 343.808 209.200,344.000 209.837,344.000 199.224 C 344.000 188.389,343.762 189.131,347.183 189.284 L 349.800 189.400 350.000 192.600 M32.268 189.900 C 32.170 190.065,33.427 194.295,35.062 199.300 C 38.951 211.203,38.854 211.174,42.398 201.500 C 45.980 191.720,45.763 191.803,48.450 199.200 C 52.862 211.344,52.729 211.331,56.463 200.044 C 59.884 189.704,59.907 189.600,58.819 189.600 C 58.355 189.600,57.900 189.825,57.809 190.100 C 57.718 190.375,56.673 193.660,55.487 197.400 C 52.721 206.121,52.832 206.122,49.571 197.335 C 45.853 187.315,45.830 187.313,42.370 196.781 C 39.384 204.953,39.079 205.442,38.227 203.402 C 37.882 202.577,37.600 201.807,37.600 201.690 C 37.600 200.847,33.858 190.158,33.479 189.917 C 32.867 189.528,32.494 189.522,32.268 189.900 M66.000 199.000 C 66.000 208.133,66.023 208.400,66.800 208.400 C 67.577 208.400,67.600 208.133,67.600 199.000 C 67.600 189.867,67.577 189.600,66.800 189.600 C 66.023 189.600,66.000 189.867,66.000 199.000 M74.534 190.227 C 74.144 191.244,74.836 191.552,77.800 191.680 L 80.600 191.800 80.708 200.100 C 80.812 208.069,80.848 208.400,81.608 208.400 C 82.370 208.400,82.400 208.107,82.400 200.633 C 82.400 191.098,82.233 191.600,85.410 191.600 C 88.252 191.600,89.200 191.350,89.200 190.600 C 89.200 189.371,75.001 189.010,74.534 190.227 M96.100 189.867 C 95.720 190.019,95.600 192.273,95.600 199.233 L 95.600 208.400 96.600 208.400 L 97.600 208.400 97.600 204.200 L 97.600 200.000 103.000 200.000 L 108.400 200.000 108.400 204.200 L 108.400 208.400 109.400 208.400 L 110.400 208.400 110.400 199.224 C 110.400 194.144,110.238 189.947,110.036 189.822 C 108.853 189.091,108.427 190.108,108.314 193.937 L 108.200 197.800 103.000 197.800 L 97.800 197.800 97.600 193.832 C 97.408 190.013,97.187 189.432,96.100 189.867 M123.296 190.134 C 115.311 193.030,115.580 205.536,123.685 208.228 C 129.576 210.185,135.368 206.858,136.480 200.878 C 137.879 193.358,130.650 187.467,123.296 190.134 M143.668 196.900 C 143.791 203.687,143.864 204.304,144.715 205.672 C 147.310 209.845,154.285 209.687,156.697 205.400 C 157.846 203.357,157.936 189.800,156.800 189.800 C 156.298 189.800,156.167 190.911,156.000 196.600 C 155.763 204.645,155.285 205.858,151.977 206.807 C 147.178 208.183,145.457 205.552,145.261 196.539 C 145.117 189.958,145.069 189.600,144.323 189.600 C 143.565 189.600,143.541 189.864,143.668 196.900 M164.400 190.583 C 164.400 191.533,164.506 191.570,167.500 191.683 L 170.600 191.800 170.708 200.100 L 170.816 208.400 171.808 208.400 L 172.800 208.400 172.800 200.000 L 172.800 191.600 175.757 191.600 C 178.091 191.600,178.766 191.466,178.959 190.964 C 179.430 189.736,178.694 189.600,171.576 189.600 L 164.400 189.600 164.400 190.583 M129.640 191.654 C 134.757 193.365,136.437 200.396,132.736 204.612 C 129.294 208.532,122.138 207.430,119.965 202.646 C 117.027 196.176,122.969 189.425,129.640 191.654 M244.075 195.300 C 244.220 196.804,246.573 197.437,247.567 196.239 C 248.563 195.040,247.718 194.000,245.748 194.000 C 243.960 194.000,243.950 194.008,244.075 195.300 M244.169 201.736 C 243.399 203.744,244.881 204.868,247.448 204.224 C 248.376 203.991,248.842 202.308,248.100 201.870 C 247.073 201.262,244.386 201.171,244.169 201.736 M0.000 327.800 L 0.000 400.000 200.000 400.000 L 400.000 400.000 400.000 327.800 L 400.000 255.600 200.000 255.600 L 0.000 255.600 0.000 327.800 M192.440 262.040 C 205.427 266.237,203.545 284.265,189.992 285.494 C 180.313 286.372,173.639 276.540,178.100 267.974 C 180.715 262.953,187.097 260.312,192.440 262.040 M219.604 263.261 C 223.994 265.841,224.588 273.624,220.595 276.240 C 219.272 277.107,219.285 277.167,221.653 281.088 C 224.001 284.975,223.936 285.188,220.400 285.188 C 217.575 285.188,217.402 285.059,215.211 281.330 C 212.312 276.398,210.417 276.606,210.406 281.857 C 210.399 285.036,210.262 285.200,207.600 285.200 C 204.618 285.200,204.800 285.956,204.800 273.591 C 204.800 265.077,204.917 262.414,205.300 262.244 C 207.063 261.457,217.839 262.224,219.604 263.261 M185.765 267.956 C 178.599 272.326,184.495 283.066,191.992 279.299 C 196.211 277.180,196.396 270.493,192.304 267.998 C 190.593 266.955,187.440 266.935,185.765 267.956 M210.566 267.745 C 210.451 268.044,210.412 269.349,210.478 270.645 L 210.600 273.000 213.335 273.000 C 217.269 273.000,218.819 270.858,216.771 268.254 C 215.808 267.030,210.992 266.634,210.566 267.745 " stroke="none" fill="#fbfbfb" fill-rule="evenodd"></path><path id="path2" d="M161.400 114.010 C 160.866 114.247,161.198 114.286,162.400 114.127 C 163.390 113.996,164.275 113.824,164.367 113.744 C 164.714 113.443,162.164 113.672,161.400 114.010 M164.833 113.744 C 164.925 113.824,165.810 113.996,166.800 114.127 C 168.002 114.286,168.334 114.247,167.800 114.010 C 167.036 113.672,164.486 113.443,164.833 113.744 M206.715 113.928 C 206.338 114.078,207.726 114.200,209.800 114.200 C 211.874 114.200,213.262 114.078,212.885 113.928 C 212.508 113.779,211.120 113.656,209.800 113.656 C 208.480 113.656,207.092 113.779,206.715 113.928 M180.500 114.297 C 181.985 114.374,184.415 114.374,185.900 114.297 C 187.385 114.220,186.170 114.157,183.200 114.157 C 180.230 114.157,179.015 114.220,180.500 114.297 M233.800 114.389 L 243.400 114.600 243.400 116.863 C 243.400 118.107,243.535 119.042,243.700 118.939 C 244.320 118.554,244.032 114.498,243.367 114.243 C 243.019 114.109,238.564 114.040,233.467 114.089 L 224.200 114.178 233.800 114.389 M202.778 115.532 C 201.800 116.154,200.735 117.009,200.412 117.432 C 199.946 118.040,200.029 118.019,200.812 117.330 C 201.355 116.851,202.610 115.998,203.600 115.435 C 204.590 114.871,205.210 114.407,204.978 114.405 C 204.746 114.402,203.756 114.909,202.778 115.532 M171.194 116.203 C 172.787 118.121,172.921 118.245,172.486 117.396 C 172.259 116.953,171.652 116.234,171.137 115.798 C 170.233 115.034,170.235 115.048,171.194 116.203 M194.255 118.200 C 195.180 119.779,195.200 119.803,195.200 119.311 C 195.200 119.079,194.829 118.464,194.376 117.944 L 193.553 117.000 194.255 118.200 M166.914 119.320 C 167.401 119.826,167.874 120.187,167.964 120.123 C 168.198 119.955,166.742 118.400,166.352 118.400 C 166.174 118.400,166.427 118.814,166.914 119.320 M173.065 119.540 C 173.239 120.467,173.144 121.001,172.758 121.271 C 172.294 121.595,172.301 121.634,172.800 121.499 C 173.549 121.297,173.790 119.857,173.233 118.912 C 172.906 118.357,172.869 118.496,173.065 119.540 M182.969 119.337 C 182.855 119.633,182.816 121.208,182.881 122.837 L 183.000 125.800 185.302 125.833 L 187.604 125.866 185.386 125.712 L 183.167 125.559 183.284 122.480 L 183.400 119.400 185.200 119.160 L 187.000 118.920 185.087 118.860 C 183.810 118.820,183.106 118.979,182.969 119.337 M209.105 119.083 C 209.602 119.179,210.322 119.175,210.705 119.075 C 211.087 118.975,210.680 118.896,209.800 118.901 C 208.920 118.905,208.607 118.987,209.105 119.083 M205.476 120.500 C 204.754 121.215,204.621 121.419,205.181 120.954 C 205.742 120.488,206.560 119.908,207.000 119.666 C 207.440 119.423,207.572 119.219,207.294 119.212 C 207.016 119.205,206.198 119.785,205.476 120.500 M227.892 119.497 L 230.784 119.635 230.900 128.117 L 231.017 136.600 231.108 127.900 L 231.200 119.200 228.100 119.279 L 225.000 119.359 227.892 119.497 M236.579 119.710 C 236.471 119.991,236.436 123.996,236.500 128.610 L 236.617 137.000 236.709 128.317 L 236.800 119.634 239.900 119.497 L 243.000 119.361 239.887 119.280 C 237.672 119.223,236.718 119.347,236.579 119.710 M195.328 122.400 C 195.328 123.830,195.401 124.415,195.489 123.700 C 195.578 122.985,195.578 121.815,195.489 121.100 C 195.401 120.385,195.328 120.970,195.328 122.400 M214.445 120.981 C 214.800 121.431,215.290 122.160,215.533 122.600 C 215.777 123.040,215.981 123.178,215.988 122.906 C 215.995 122.635,215.505 121.906,214.900 121.287 C 214.295 120.668,214.090 120.530,214.445 120.981 M189.701 122.600 C 189.705 123.480,189.787 123.793,189.883 123.295 C 189.979 122.798,189.975 122.078,189.875 121.695 C 189.775 121.313,189.696 121.720,189.701 122.600 M197.800 122.400 C 197.648 123.091,197.607 123.741,197.709 123.842 C 197.811 123.944,198.009 123.453,198.150 122.750 C 198.483 121.083,198.160 120.760,197.800 122.400 M156.025 122.007 C 156.000 122.615,157.841 125.600,158.242 125.600 C 158.359 125.600,158.083 125.079,157.630 124.442 C 157.176 123.805,156.635 122.860,156.428 122.342 C 156.218 121.818,156.039 121.670,156.025 122.007 M221.728 125.600 C 221.728 127.030,221.801 127.615,221.889 126.900 C 221.978 126.185,221.978 125.015,221.889 124.300 C 221.801 123.585,221.728 124.170,221.728 125.600 M216.109 125.600 C 216.109 126.590,216.187 126.995,216.282 126.500 C 216.378 126.005,216.378 125.195,216.282 124.700 C 216.187 124.205,216.109 124.610,216.109 125.600 M158.800 125.796 C 158.800 126.070,161.249 127.284,161.432 127.101 C 161.519 127.014,160.962 126.644,160.195 126.278 C 159.428 125.912,158.800 125.695,158.800 125.796 M163.000 127.600 C 163.440 127.789,164.070 127.944,164.400 127.944 C 164.778 127.944,164.704 127.817,164.200 127.600 C 163.760 127.411,163.130 127.256,162.800 127.256 C 162.422 127.256,162.496 127.383,163.000 127.600 M197.668 127.800 C 197.662 128.240,197.811 128.960,198.000 129.400 C 198.438 130.419,198.438 129.368,198.000 128.000 C 197.743 127.196,197.677 127.157,197.668 127.800 M173.709 130.400 C 173.709 131.390,173.787 131.795,173.882 131.300 C 173.978 130.805,173.978 129.995,173.882 129.500 C 173.787 129.005,173.709 129.410,173.709 130.400 M157.300 129.487 C 157.905 129.578,158.895 129.578,159.500 129.487 C 160.105 129.395,159.610 129.320,158.400 129.320 C 157.190 129.320,156.695 129.395,157.300 129.487 M167.967 130.790 C 167.875 131.334,167.350 132.007,166.800 132.284 C 166.177 132.598,166.040 132.790,166.438 132.794 C 167.343 132.802,168.501 131.396,168.303 130.530 C 168.171 129.959,168.098 130.015,167.967 130.790 M183.067 130.667 C 182.920 130.813,182.832 132.298,182.872 133.967 L 182.944 137.000 183.172 134.000 L 183.400 131.000 186.200 130.771 L 189.000 130.541 186.167 130.471 C 184.608 130.432,183.213 130.520,183.067 130.667 M162.162 131.900 C 162.581 132.395,163.211 132.786,163.562 132.768 C 164.104 132.742,164.109 132.703,163.600 132.516 C 163.270 132.395,162.640 132.004,162.200 131.648 C 161.407 131.006,161.406 131.008,162.162 131.900 M200.034 133.122 C 200.565 133.849,201.630 134.806,202.400 135.249 C 203.429 135.840,203.535 135.861,202.801 135.327 C 202.251 134.927,201.186 133.970,200.434 133.200 L 199.068 131.800 200.034 133.122 M157.256 134.341 C 157.510 134.748,158.097 135.311,158.559 135.591 C 159.148 135.947,159.048 135.725,158.225 134.850 C 156.888 133.427,156.586 133.269,157.256 134.341 M162.076 137.260 C 163.305 137.606,167.224 137.614,168.083 137.272 C 168.458 137.122,167.052 137.000,164.959 137.000 C 162.865 137.000,161.568 137.117,162.076 137.260 M178.900 137.087 C 179.505 137.178,180.495 137.178,181.100 137.087 C 181.705 136.995,181.210 136.920,180.000 136.920 C 178.790 136.920,178.295 136.995,178.900 137.087 M209.800 137.200 L 207.400 137.466 209.600 137.493 C 210.810 137.508,212.250 137.376,212.800 137.200 C 214.014 136.811,213.313 136.811,209.800 137.200 M232.500 137.087 C 233.105 137.178,234.095 137.178,234.700 137.087 C 235.305 136.995,234.810 136.920,233.600 136.920 C 232.390 136.920,231.895 136.995,232.500 137.087 M99.900 144.700 C 154.955 144.756,245.045 144.756,300.100 144.700 C 355.155 144.644,310.110 144.598,200.000 144.598 C 89.890 144.598,44.845 144.644,99.900 144.700 M2.400 200.000 L 2.400 252.800 200.000 252.800 L 397.600 252.800 397.600 200.000 L 397.600 147.200 200.000 147.200 L 2.400 147.200 2.400 200.000 M397.200 200.000 L 397.200 252.400 200.000 252.400 L 2.800 252.400 2.800 200.000 L 2.800 147.600 200.000 147.600 L 397.200 147.600 397.200 200.000 M58.500 155.100 C 84.405 155.157,126.795 155.157,152.700 155.100 C 178.605 155.043,157.410 154.997,105.600 154.997 C 53.790 154.997,32.595 155.043,58.500 155.100 M10.993 199.600 C 10.993 224.130,11.041 234.165,11.100 221.900 C 11.159 209.635,11.159 189.565,11.100 177.300 C 11.041 165.035,10.993 175.070,10.993 199.600 M200.193 199.600 C 200.193 223.910,200.241 233.855,200.300 221.700 C 200.359 209.545,200.359 189.655,200.300 177.500 C 200.241 165.345,200.193 175.290,200.193 199.600 M329.800 189.200 C 328.781 189.638,329.832 189.638,331.200 189.200 C 332.004 188.943,332.043 188.877,331.400 188.868 C 330.960 188.862,330.240 189.011,329.800 189.200 M333.633 188.943 C 333.725 189.021,334.430 189.201,335.200 189.342 C 336.185 189.523,336.422 189.482,336.000 189.206 C 335.458 188.850,333.237 188.603,333.633 188.943 M126.105 189.487 C 126.714 189.579,127.614 189.577,128.105 189.482 C 128.597 189.387,128.100 189.311,127.000 189.314 C 125.900 189.317,125.497 189.395,126.105 189.487 M240.882 189.496 C 242.358 189.573,244.878 189.573,246.482 189.497 C 248.087 189.421,246.880 189.358,243.800 189.358 C 240.720 189.357,239.407 189.419,240.882 189.496 M258.900 189.491 C 259.725 189.578,261.075 189.578,261.900 189.491 C 262.725 189.405,262.050 189.334,260.400 189.334 C 258.750 189.334,258.075 189.405,258.900 189.491 M273.861 189.500 C 273.758 189.665,275.772 189.753,278.337 189.696 C 286.657 189.509,287.545 189.353,280.724 189.276 C 277.052 189.234,273.963 189.335,273.861 189.500 M290.662 189.500 C 290.560 189.665,291.314 189.746,292.338 189.680 C 295.259 189.493,295.614 189.297,293.124 189.246 C 291.872 189.221,290.764 189.335,290.662 189.500 M307.549 189.900 C 307.068 190.513,307.076 190.541,307.614 190.123 C 307.951 189.860,309.301 189.579,310.614 189.498 L 313.000 189.351 310.549 189.276 C 308.629 189.216,307.979 189.352,307.549 189.900 M318.100 189.491 C 318.925 189.578,320.275 189.578,321.100 189.491 C 321.925 189.405,321.250 189.334,319.600 189.334 C 317.950 189.334,317.275 189.405,318.100 189.491 M344.262 189.500 C 344.160 189.665,345.392 189.800,347.000 189.800 C 348.608 189.800,349.840 189.665,349.738 189.500 C 349.636 189.335,348.404 189.200,347.000 189.200 C 345.596 189.200,344.364 189.335,344.262 189.500 M355.796 189.700 C 355.698 189.975,355.569 191.460,355.509 193.000 L 355.400 195.800 352.737 195.800 C 351.273 195.800,350.158 195.935,350.261 196.100 C 350.566 196.592,355.000 196.440,355.520 195.920 C 355.807 195.633,356.000 194.250,356.000 192.487 L 356.000 189.534 358.763 189.667 C 360.283 189.740,361.442 189.665,361.340 189.500 C 361.010 188.970,355.992 189.151,355.796 189.700 M65.692 199.100 L 65.600 208.800 66.800 208.800 L 68.000 208.800 67.908 199.100 L 67.815 189.400 67.700 198.900 C 67.590 208.036,67.555 208.400,66.800 208.400 C 66.045 208.400,66.010 208.036,65.900 198.900 L 65.785 189.400 65.692 199.100 M74.267 189.867 C 73.668 190.466,74.041 191.594,74.900 191.780 C 76.410 192.109,80.782 192.218,80.482 191.920 C 80.327 191.767,78.940 191.587,77.400 191.520 C 74.788 191.408,74.602 191.340,74.632 190.500 C 74.667 189.508,74.652 189.482,74.267 189.867 M88.700 189.865 C 90.599 190.631,88.762 191.600,85.410 191.600 C 82.233 191.600,82.400 191.101,82.400 200.605 C 82.400 208.313,82.396 208.345,81.500 208.518 C 80.723 208.667,80.749 208.698,81.692 208.746 L 82.784 208.800 82.892 200.500 L 83.000 192.200 85.881 192.000 C 87.466 191.890,88.975 191.587,89.234 191.327 C 89.799 190.761,89.437 189.587,88.713 189.632 C 88.311 189.656,88.308 189.707,88.700 189.865 M95.380 190.109 C 95.272 190.389,95.233 194.664,95.292 199.609 L 95.400 208.600 96.600 208.658 C 97.740 208.713,97.745 208.707,96.700 208.531 L 95.600 208.347 95.600 199.207 C 95.600 192.269,95.720 190.018,96.100 189.865 C 96.492 189.707,96.489 189.656,96.087 189.632 C 95.806 189.614,95.487 189.829,95.380 190.109 M108.267 189.867 C 108.120 190.013,108.000 191.823,108.000 193.889 L 108.000 197.644 102.819 197.522 C 99.969 197.455,97.779 197.541,97.951 197.713 C 98.124 197.885,100.501 197.975,103.233 197.913 L 108.200 197.800 108.316 194.014 C 108.390 191.604,108.608 190.115,108.916 189.920 C 109.216 189.729,109.236 189.610,108.967 189.606 C 108.728 189.603,108.413 189.720,108.267 189.867 M143.295 196.200 C 143.274 199.940,143.379 203.310,143.528 203.688 C 143.678 204.067,143.750 201.637,143.690 198.288 C 143.529 189.392,143.340 188.395,143.295 196.200 M145.361 195.600 C 145.361 199.010,145.422 200.405,145.497 198.700 C 145.572 196.995,145.572 194.205,145.497 192.500 C 145.422 190.795,145.361 192.190,145.361 195.600 M157.504 194.299 C 157.692 202.722,157.847 203.537,157.924 196.500 C 157.966 192.705,157.865 189.600,157.700 189.599 C 157.535 189.599,157.447 191.714,157.504 194.299 M164.161 190.800 C 164.199 191.766,164.304 191.804,167.292 191.917 L 170.384 192.033 170.492 200.317 L 170.600 208.600 171.800 208.658 C 172.924 208.712,172.931 208.704,171.908 208.532 L 170.816 208.348 170.708 200.074 L 170.600 191.800 167.525 191.684 C 164.713 191.577,164.436 191.492,164.286 190.684 C 164.150 189.945,164.129 189.964,164.161 190.800 M237.682 199.100 C 237.637 204.435,237.735 208.800,237.900 208.801 C 238.065 208.801,238.154 205.966,238.097 202.501 C 237.901 190.551,237.764 189.429,237.682 199.100 M326.841 191.014 C 326.159 191.792,325.602 192.557,325.604 192.714 C 325.607 192.871,326.068 192.418,326.628 191.706 C 327.189 190.995,327.952 190.236,328.324 190.019 C 328.696 189.802,328.794 189.619,328.541 189.612 C 328.289 189.605,327.524 190.236,326.841 191.014 M257.372 199.200 C 257.372 204.370,257.429 206.485,257.499 203.900 C 257.568 201.315,257.568 197.085,257.499 194.500 C 257.429 191.915,257.372 194.030,257.372 199.200 M263.385 196.700 L 263.400 203.400 267.301 203.600 C 269.446 203.710,271.201 203.665,271.201 203.500 C 271.200 203.335,269.494 203.200,267.410 203.200 L 263.619 203.200 263.495 196.600 L 263.370 189.999 263.385 196.700 M312.972 199.200 C 312.972 204.370,313.029 206.485,313.099 203.900 C 313.168 201.315,313.168 197.085,313.099 194.500 C 313.029 191.915,312.972 194.030,312.972 199.200 M316.572 199.200 C 316.572 204.370,316.629 206.485,316.699 203.900 C 316.768 201.315,316.768 197.085,316.699 194.500 C 316.629 191.915,316.572 194.030,316.572 199.200 M322.572 199.200 C 322.572 204.370,322.629 206.485,322.699 203.900 C 322.768 201.315,322.768 197.085,322.699 194.500 C 322.629 191.915,322.572 194.030,322.572 199.200 M178.800 191.133 C 178.800 191.442,177.750 191.627,175.700 191.679 L 172.600 191.759 175.561 191.898 C 178.301 192.027,179.762 191.629,179.073 190.940 C 178.923 190.790,178.800 190.877,178.800 191.133 M305.950 192.100 C 305.452 192.815,304.585 194.021,304.022 194.780 C 303.460 195.539,303.192 196.043,303.427 195.901 C 303.933 195.595,307.341 190.800,307.053 190.800 C 306.944 190.800,306.447 191.385,305.950 192.100 M119.729 192.100 C 119.284 192.595,118.776 193.270,118.601 193.600 C 118.263 194.237,118.355 194.150,119.976 192.300 C 120.506 191.695,120.849 191.200,120.739 191.200 C 120.629 191.200,120.175 191.605,119.729 192.100 M124.715 191.528 C 124.338 191.678,125.366 191.800,127.000 191.800 C 128.634 191.800,129.662 191.678,129.285 191.528 C 128.908 191.379,127.880 191.256,127.000 191.256 C 126.120 191.256,125.092 191.379,124.715 191.528 M134.038 192.177 C 134.388 192.630,134.973 193.445,135.338 193.989 C 135.702 194.533,136.000 194.788,136.000 194.556 C 136.000 194.323,135.415 193.508,134.700 192.743 C 133.985 191.979,133.687 191.724,134.038 192.177 M298.412 193.922 C 299.366 195.308,300.336 196.560,300.567 196.703 C 301.041 196.996,298.192 192.929,297.272 192.000 C 296.945 191.670,297.458 192.535,298.412 193.922 M121.487 193.569 C 120.562 194.432,119.894 195.197,120.002 195.269 C 120.111 195.341,120.972 194.635,121.915 193.700 C 124.071 191.563,123.744 191.463,121.487 193.569 M253.874 193.863 C 254.024 194.991,253.882 195.956,253.430 196.863 C 252.831 198.068,252.829 198.136,253.413 197.555 C 254.228 196.744,254.629 193.938,254.073 192.947 C 253.746 192.367,253.702 192.573,253.874 193.863 M243.867 193.867 C 243.488 194.245,243.535 196.800,243.920 196.800 C 244.096 196.800,244.166 196.170,244.076 195.400 L 243.912 194.000 245.729 194.000 C 247.217 194.000,247.594 194.150,247.810 194.830 C 247.954 195.287,248.161 195.572,248.269 195.464 C 248.377 195.357,248.264 194.893,248.018 194.434 C 247.574 193.605,244.543 193.190,243.867 193.867 M283.304 193.898 C 279.728 194.026,279.599 194.063,279.353 195.044 C 278.969 196.574,279.580 196.849,283.038 196.698 L 286.200 196.561 282.872 196.480 C 279.670 196.403,279.549 196.366,279.672 195.500 C 279.793 194.651,280.008 194.594,283.500 194.485 C 285.535 194.422,287.200 194.197,287.200 193.985 C 287.200 193.773,287.155 193.637,287.100 193.683 C 287.045 193.729,285.337 193.825,283.304 193.898 M325.301 195.000 C 325.305 195.880,325.387 196.193,325.483 195.695 C 325.579 195.198,325.575 194.478,325.475 194.095 C 325.375 193.713,325.296 194.120,325.301 195.000 M136.244 196.200 C 136.573 197.671,136.802 197.990,136.794 196.967 C 136.791 196.545,136.605 195.930,136.382 195.600 C 136.085 195.162,136.048 195.324,136.244 196.200 M331.200 195.602 C 331.200 195.940,333.547 196.993,333.766 196.754 C 333.844 196.669,333.298 196.308,332.554 195.951 C 331.809 195.593,331.200 195.437,331.200 195.602 M335.462 195.700 C 335.564 195.865,336.807 196.000,338.224 196.000 C 339.641 196.000,340.800 195.865,340.800 195.700 C 340.800 195.535,339.557 195.400,338.038 195.400 C 336.519 195.400,335.360 195.535,335.462 195.700 M302.385 197.018 C 302.103 197.358,301.621 197.540,301.315 197.423 C 301.009 197.305,300.868 197.387,301.003 197.605 C 301.398 198.244,302.170 198.060,302.707 197.200 C 303.300 196.251,303.110 196.144,302.385 197.018 M119.228 199.033 C 119.244 200.115,119.404 201.360,119.585 201.800 C 119.778 202.270,119.826 201.527,119.702 200.000 C 119.448 196.855,119.189 196.329,119.228 199.033 M134.514 199.000 C 134.517 200.100,134.595 200.503,134.687 199.895 C 134.779 199.286,134.777 198.386,134.682 197.895 C 134.587 197.403,134.511 197.900,134.514 199.000 M286.509 198.800 C 286.509 199.790,286.587 200.195,286.682 199.700 C 286.778 199.205,286.778 198.395,286.682 197.900 C 286.587 197.405,286.509 197.810,286.509 198.800 M325.914 197.804 C 326.141 198.247,326.748 198.966,327.263 199.402 C 328.167 200.166,328.165 200.152,327.206 198.997 C 325.613 197.079,325.479 196.955,325.914 197.804 M339.599 199.500 C 340.122 200.215,340.613 200.800,340.689 200.800 C 340.993 200.800,340.001 199.300,339.345 198.767 C 338.913 198.416,339.010 198.696,339.599 199.500 M117.293 200.400 C 117.293 201.170,117.375 201.485,117.476 201.100 C 117.576 200.715,117.576 200.085,117.476 199.700 C 117.375 199.315,117.293 199.630,117.293 200.400 M252.800 199.393 C 252.800 199.525,253.182 200.031,253.649 200.517 L 254.499 201.400 254.047 200.522 C 253.600 199.654,252.800 198.929,252.800 199.393 M108.178 204.200 L 108.200 208.600 109.400 208.658 C 110.513 208.712,110.522 208.703,109.513 208.533 L 108.427 208.349 108.291 204.075 L 108.155 199.800 108.178 204.200 M296.172 200.528 C 296.061 200.819,296.029 202.844,296.101 205.028 L 296.233 209.000 296.316 204.857 C 296.390 201.200,296.477 200.744,297.057 200.966 C 297.606 201.177,297.630 201.118,297.208 200.609 C 296.589 199.864,296.432 199.851,296.172 200.528 M306.709 202.899 C 306.907 208.147,307.064 208.668,307.133 204.300 C 307.170 201.935,307.065 200.000,306.900 199.999 C 306.735 199.999,306.649 201.304,306.709 202.899 M155.649 201.400 C 155.616 201.840,155.496 202.650,155.383 203.200 L 155.177 204.200 155.606 203.219 C 155.842 202.679,155.961 201.869,155.872 201.419 C 155.713 200.621,155.707 200.621,155.649 201.400 M305.544 201.500 C 304.393 202.889,303.906 203.600,304.104 203.600 C 304.214 203.600,304.786 202.970,305.373 202.200 C 306.463 200.771,306.595 200.232,305.544 201.500 M330.433 200.944 C 330.525 201.023,331.140 201.208,331.800 201.356 C 332.676 201.552,332.838 201.515,332.400 201.218 C 331.860 200.853,330.032 200.598,330.433 200.944 M243.677 202.900 L 243.800 204.600 245.600 204.657 L 247.400 204.714 245.800 204.457 C 244.263 204.210,244.200 204.141,244.200 202.700 C 244.200 201.875,244.055 201.200,243.877 201.200 C 243.699 201.200,243.609 201.965,243.677 202.900 M246.997 201.551 C 247.914 201.747,248.253 202.086,248.449 203.003 C 248.688 204.117,248.709 204.129,248.753 203.180 C 248.813 201.882,248.118 201.187,246.820 201.247 C 245.871 201.291,245.883 201.312,246.997 201.551 M281.911 201.493 C 282.851 201.578,284.291 201.577,285.111 201.491 C 285.930 201.405,285.160 201.336,283.400 201.337 C 281.640 201.339,280.970 201.409,281.911 201.493 M340.920 203.200 C 340.920 204.410,340.995 204.905,341.087 204.300 C 341.178 203.695,341.178 202.705,341.087 202.100 C 340.995 201.495,340.920 201.990,340.920 203.200 M254.514 203.400 C 254.517 204.500,254.595 204.903,254.687 204.295 C 254.779 203.686,254.777 202.786,254.682 202.295 C 254.587 201.803,254.511 202.300,254.514 203.400 M279.467 201.867 C 279.105 202.228,279.128 203.508,279.500 203.738 C 279.665 203.840,279.800 203.401,279.800 202.762 C 279.800 202.123,279.785 201.600,279.767 201.600 C 279.748 201.600,279.613 201.720,279.467 201.867 M298.619 202.900 C 299.659 204.350,299.770 204.398,301.947 204.326 L 304.200 204.252 302.009 204.102 C 300.146 203.974,299.648 203.761,298.680 202.676 L 297.542 201.400 298.619 202.900 M352.685 201.887 L 355.569 202.034 355.709 205.418 L 355.850 208.802 355.825 205.301 L 355.800 201.800 352.800 201.770 L 349.800 201.739 352.685 201.887 M325.293 203.600 C 325.293 204.370,325.375 204.685,325.476 204.300 C 325.576 203.915,325.576 203.285,325.476 202.900 C 325.375 202.515,325.293 202.830,325.293 203.600 M120.314 203.404 C 120.541 203.847,121.148 204.566,121.663 205.002 C 122.567 205.766,122.565 205.752,121.606 204.597 C 120.013 202.679,119.879 202.555,120.314 203.404 M53.012 203.580 C 52.865 203.818,52.577 203.909,52.372 203.783 C 52.168 203.656,52.000 203.743,52.000 203.976 C 52.000 204.209,52.259 204.400,52.576 204.400 C 53.193 204.400,53.812 203.679,53.480 203.347 C 53.370 203.237,53.160 203.342,53.012 203.580 M132.749 204.265 C 132.447 204.630,131.660 205.260,131.000 205.663 C 130.340 206.067,130.028 206.398,130.306 206.399 C 130.808 206.400,134.029 203.632,133.549 203.611 C 133.411 203.605,133.051 203.899,132.749 204.265 M331.568 204.100 C 332.342 205.123,335.200 204.948,335.200 203.877 C 335.200 203.585,335.041 203.599,334.720 203.920 C 334.093 204.547,332.312 204.535,331.599 203.900 C 331.122 203.475,331.118 203.504,331.568 204.100 M156.590 205.524 C 156.079 206.479,155.170 207.318,154.015 207.900 C 153.034 208.395,152.512 208.800,152.856 208.800 C 154.303 208.800,158.255 204.921,157.538 204.205 C 157.452 204.118,157.025 204.712,156.590 205.524 M287.117 205.900 C 287.312 208.940,287.503 209.202,287.554 206.500 C 287.579 205.125,287.464 204.000,287.297 204.000 C 287.131 204.000,287.049 204.855,287.117 205.900 M118.970 205.220 C 119.575 206.221,121.682 208.000,122.262 208.000 C 122.423 208.000,121.992 207.584,121.304 207.077 C 120.616 206.569,119.670 205.714,119.202 205.177 L 118.353 204.200 118.970 205.220 M271.320 206.400 C 271.320 207.610,271.395 208.105,271.487 207.500 C 271.578 206.895,271.578 205.905,271.487 205.300 C 271.395 204.695,271.320 205.190,271.320 206.400 M144.003 204.914 C 143.997 205.549,145.338 207.244,146.157 207.638 C 146.972 208.031,146.975 208.024,146.232 207.428 C 145.810 207.090,145.136 206.315,144.735 205.706 C 144.334 205.098,144.004 204.741,144.003 204.914 M326.030 206.000 C 326.559 207.056,327.284 207.742,328.600 208.434 C 329.110 208.701,329.038 208.563,328.401 208.051 C 327.852 207.609,326.981 206.742,326.466 206.124 C 325.591 205.074,325.562 205.066,326.030 206.000 M253.017 206.878 C 252.085 207.855,252.019 208.018,252.708 207.649 C 253.189 207.392,253.772 206.826,254.005 206.391 C 254.569 205.336,254.417 205.411,253.017 206.878 M340.007 206.387 C 339.755 206.858,338.975 207.593,338.274 208.020 C 337.574 208.447,337.228 208.798,337.506 208.799 C 338.194 208.801,341.064 206.131,340.731 205.798 C 340.585 205.651,340.259 205.917,340.007 206.387 M125.559 206.901 C 126.328 207.101,127.538 207.103,128.357 206.906 C 129.608 206.606,129.428 206.559,127.002 206.555 C 124.638 206.551,124.414 206.605,125.559 206.901 M149.413 206.854 C 150.080 207.032,151.160 207.031,151.813 206.853 C 152.770 206.591,152.536 206.528,150.600 206.530 C 148.645 206.531,148.425 206.591,149.413 206.854 M51.301 207.571 C 51.546 208.524,52.705 209.056,53.476 208.569 C 53.848 208.335,54.219 207.886,54.299 207.571 C 54.385 207.240,54.260 207.294,54.003 207.700 C 53.760 208.085,53.218 208.400,52.800 208.400 C 52.382 208.400,51.840 208.085,51.597 207.700 C 51.340 207.294,51.215 207.240,51.301 207.571 M37.700 208.000 C 37.791 208.338,38.371 208.628,39.031 208.663 C 40.038 208.718,40.061 208.699,39.200 208.523 C 38.650 208.411,38.051 208.112,37.870 207.860 C 37.649 207.552,37.593 207.599,37.700 208.000 M241.100 209.096 C 242.475 209.174,244.725 209.174,246.100 209.096 C 247.475 209.018,246.350 208.954,243.600 208.954 C 240.850 208.954,239.725 209.018,241.100 209.096 M261.100 209.098 C 262.915 209.172,265.885 209.172,267.700 209.098 C 269.515 209.023,268.030 208.963,264.400 208.963 C 260.770 208.963,259.285 209.023,261.100 209.098 M277.519 209.098 C 279.344 209.172,282.224 209.172,283.919 209.097 C 285.614 209.022,284.120 208.961,280.600 208.962 C 277.080 208.962,275.694 209.024,277.519 209.098 M292.307 209.090 C 293.026 209.179,294.106 209.177,294.707 209.086 C 295.308 208.995,294.720 208.922,293.400 208.924 C 292.080 208.926,291.588 209.001,292.307 209.090 M308.700 209.089 C 309.415 209.178,310.585 209.178,311.300 209.089 C 312.015 209.001,311.430 208.928,310.000 208.928 C 308.570 208.928,307.985 209.001,308.700 209.089 M318.300 209.089 C 319.015 209.178,320.185 209.178,320.900 209.089 C 321.615 209.001,321.030 208.928,319.600 208.928 C 318.170 208.928,317.585 209.001,318.300 209.089 M330.600 209.215 C 331.374 209.533,335.504 209.749,335.167 209.454 C 335.075 209.374,333.830 209.213,332.400 209.098 C 330.873 208.974,330.130 209.022,330.600 209.215 M345.907 209.090 C 346.626 209.179,347.706 209.177,348.307 209.086 C 348.908 208.995,348.320 208.922,347.000 208.924 C 345.680 208.926,345.188 209.001,345.907 209.090 M357.507 209.090 C 358.226 209.179,359.306 209.177,359.907 209.086 C 360.508 208.995,359.920 208.922,358.600 208.924 C 357.280 208.926,356.788 209.001,357.507 209.090 M105.400 244.400 L 11.000 244.603 105.500 244.701 C 168.299 244.767,200.000 244.666,200.000 244.400 C 200.000 244.180,199.955 244.044,199.900 244.099 C 199.845 244.153,157.320 244.289,105.400 244.400 M99.900 255.500 C 154.955 255.556,245.045 255.556,300.100 255.500 C 355.155 255.444,310.110 255.398,200.000 255.398 C 89.890 255.398,44.845 255.444,99.900 255.500 M185.915 261.928 C 185.538 262.078,186.926 262.200,189.000 262.200 C 191.074 262.200,192.462 262.078,192.085 261.928 C 191.708 261.779,190.320 261.656,189.000 261.656 C 187.680 261.656,186.292 261.779,185.915 261.928 M208.082 262.296 C 209.558 262.373,212.078 262.373,213.682 262.297 C 215.287 262.221,214.080 262.158,211.000 262.158 C 207.920 262.157,206.607 262.219,208.082 262.296 M181.978 263.532 C 181.000 264.154,179.935 265.009,179.612 265.432 C 179.146 266.040,179.229 266.019,180.012 265.330 C 180.555 264.851,181.810 263.998,182.800 263.435 C 183.790 262.871,184.410 262.407,184.178 262.405 C 183.946 262.402,182.956 262.909,181.978 263.532 M188.305 267.083 C 188.802 267.179,189.522 267.175,189.905 267.075 C 190.287 266.975,189.880 266.896,189.000 266.901 C 188.120 266.905,187.807 266.987,188.305 267.083 M210.400 267.103 C 210.400 267.269,211.255 267.351,212.300 267.283 C 215.340 267.088,215.602 266.897,212.900 266.846 C 211.525 266.821,210.400 266.936,210.400 267.103 M184.676 268.500 C 183.954 269.215,183.821 269.419,184.381 268.954 C 184.942 268.488,185.760 267.908,186.200 267.666 C 186.640 267.423,186.772 267.219,186.494 267.212 C 186.216 267.205,185.398 267.785,184.676 268.500 M193.645 268.981 C 194.000 269.431,194.490 270.160,194.733 270.600 C 194.977 271.040,195.181 271.178,195.188 270.906 C 195.195 270.635,194.705 269.906,194.100 269.287 C 193.495 268.668,193.290 268.530,193.645 268.981 M177.000 270.400 C 176.848 271.091,176.807 271.741,176.909 271.842 C 177.011 271.944,177.209 271.453,177.350 270.750 C 177.683 269.083,177.360 268.760,177.000 270.400 M200.928 273.600 C 200.928 275.030,201.001 275.615,201.089 274.900 C 201.178 274.185,201.178 273.015,201.089 272.300 C 201.001 271.585,200.928 272.170,200.928 273.600 M195.309 273.600 C 195.309 274.590,195.387 274.995,195.482 274.500 C 195.578 274.005,195.578 273.195,195.482 272.700 C 195.387 272.205,195.309 272.610,195.309 273.600 M210.400 273.289 C 210.400 273.460,211.435 273.579,212.700 273.554 C 215.141 273.504,214.902 273.328,212.100 273.111 C 211.165 273.038,210.400 273.119,210.400 273.289 M220.700 275.586 C 219.184 277.122,218.901 277.768,219.563 278.177 C 219.762 278.300,219.839 278.070,219.733 277.666 C 219.607 277.184,219.891 276.701,220.556 276.265 C 221.115 275.899,221.765 275.240,222.000 274.800 C 222.568 273.738,222.459 273.804,220.700 275.586 M176.868 275.800 C 176.862 276.240,177.011 276.960,177.200 277.400 C 177.638 278.419,177.638 277.368,177.200 276.000 C 176.943 275.196,176.877 275.157,176.868 275.800 M210.584 278.027 C 210.439 278.261,210.428 278.561,210.560 278.693 C 210.692 278.825,210.800 278.723,210.800 278.467 C 210.800 277.612,213.113 277.941,213.777 278.889 C 214.120 279.378,214.400 279.586,214.400 279.351 C 214.400 278.065,211.238 276.968,210.584 278.027 M220.524 279.800 C 220.862 280.460,221.438 281.360,221.804 281.800 C 222.170 282.240,222.065 281.880,221.570 281.000 C 220.480 279.058,219.664 278.122,220.524 279.800 M179.234 281.122 C 179.765 281.849,180.830 282.806,181.600 283.249 C 182.629 283.840,182.735 283.861,182.001 283.327 C 181.451 282.927,180.386 281.970,179.634 281.200 L 178.268 279.800 179.234 281.122 M215.800 282.400 C 216.141 283.060,216.511 283.600,216.621 283.600 C 216.731 283.600,216.541 283.060,216.200 282.400 C 215.859 281.740,215.489 281.200,215.379 281.200 C 215.269 281.200,215.459 281.740,215.800 282.400 M189.000 285.200 L 186.600 285.466 188.800 285.493 C 190.010 285.508,191.450 285.376,192.000 285.200 C 193.214 284.811,192.513 284.811,189.000 285.200 M206.500 285.087 C 207.105 285.178,208.095 285.178,208.700 285.087 C 209.305 284.995,208.810 284.920,207.600 284.920 C 206.390 284.920,205.895 284.995,206.500 285.087 M219.100 285.089 C 219.815 285.178,220.985 285.178,221.700 285.089 C 222.415 285.001,221.830 284.928,220.400 284.928 C 218.970 284.928,218.385 285.001,219.100 285.089 " stroke="none" fill="#929292" fill-rule="evenodd"></path><path id="path3" d="M169.900 121.482 C 170.395 121.578,171.205 121.578,171.700 121.482 C 172.195 121.387,171.790 121.309,170.800 121.309 C 169.810 121.309,169.405 121.387,169.900 121.482 M184.100 126.276 C 184.485 126.376,185.115 126.376,185.500 126.276 C 185.885 126.175,185.570 126.093,184.800 126.093 C 184.030 126.093,183.715 126.175,184.100 126.276 M155.758 195.400 C 155.758 198.480,155.821 199.687,155.897 198.082 C 155.973 196.478,155.973 193.958,155.896 192.482 C 155.819 191.007,155.757 192.320,155.758 195.400 M158.157 195.200 C 158.157 198.170,158.220 199.385,158.297 197.900 C 158.374 196.415,158.374 193.985,158.297 192.500 C 158.220 191.015,158.157 192.230,158.157 195.200 M349.734 192.800 C 349.734 194.450,349.805 195.125,349.891 194.300 C 349.978 193.475,349.978 192.125,349.891 191.300 C 349.805 190.475,349.734 191.150,349.734 192.800 M80.569 200.400 C 80.569 204.910,80.627 206.755,80.698 204.500 C 80.770 202.245,80.770 198.555,80.698 196.300 C 80.627 194.045,80.569 195.890,80.569 200.400 M244.900 201.076 C 245.285 201.176,245.915 201.176,246.300 201.076 C 246.685 200.975,246.370 200.893,245.600 200.893 C 244.830 200.893,244.515 200.975,244.900 201.076 M349.740 205.200 C 349.740 207.070,349.809 207.835,349.893 206.900 C 349.977 205.965,349.977 204.435,349.893 203.500 C 349.809 202.565,349.740 203.330,349.740 205.200 M204.975 273.600 C 204.975 279.650,205.031 282.125,205.099 279.100 C 205.167 276.075,205.167 271.125,205.099 268.100 C 205.031 265.075,204.975 267.550,204.975 273.600 " stroke="none" fill="#848484" fill-rule="evenodd"></path><path id="path4" d="M163.100 114.289 C 163.815 114.378,164.985 114.378,165.700 114.289 C 166.415 114.201,165.830 114.128,164.400 114.128 C 162.970 114.128,162.385 114.201,163.100 114.289 M208.291 114.289 C 209.001 114.377,210.261 114.379,211.091 114.292 C 211.921 114.205,211.340 114.133,209.800 114.131 C 208.260 114.129,207.581 114.200,208.291 114.289 M169.000 115.065 C 169.660 115.413,170.649 116.080,171.197 116.549 L 172.194 117.400 171.398 116.459 C 170.623 115.543,168.763 114.384,168.120 114.416 C 167.944 114.425,168.340 114.717,169.000 115.065 M177.694 125.467 C 177.784 134.903,177.888 136.558,178.400 136.697 C 178.857 136.822,178.878 136.775,178.487 136.499 C 178.087 136.216,177.999 133.756,178.087 125.268 C 178.149 119.290,178.062 114.400,177.894 114.400 C 177.725 114.400,177.635 119.380,177.694 125.467 M187.233 114.543 C 187.325 114.621,188.030 114.801,188.800 114.942 C 189.785 115.123,190.022 115.082,189.600 114.806 C 189.058 114.450,186.837 114.203,187.233 114.543 M224.162 114.954 C 224.045 115.259,224.006 116.294,224.075 117.254 L 224.200 119.000 227.400 119.024 L 230.600 119.048 227.500 118.908 L 224.400 118.768 224.400 116.817 C 224.400 115.631,224.596 114.788,224.900 114.665 C 225.292 114.507,225.289 114.456,224.887 114.432 C 224.606 114.414,224.279 114.649,224.162 114.954 M243.137 116.619 L 243.274 118.800 240.137 118.806 C 235.744 118.815,236.048 118.145,235.916 128.095 C 235.852 132.861,235.931 136.630,236.092 136.469 C 236.252 136.308,236.432 132.402,236.492 127.788 L 236.600 119.400 240.000 119.200 L 243.400 119.000 243.524 117.044 C 243.593 115.969,243.503 114.942,243.324 114.763 C 243.146 114.584,243.062 115.419,243.137 116.619 M157.804 116.396 C 157.174 117.054,156.735 117.656,156.829 117.734 C 156.923 117.812,157.513 117.274,158.139 116.538 C 159.554 114.877,159.345 114.788,157.804 116.396 M219.374 119.000 C 220.767 121.052,221.052 121.295,220.277 119.771 C 219.934 119.095,219.349 118.290,218.978 117.982 C 218.607 117.674,218.785 118.132,219.374 119.000 M161.395 119.351 C 160.463 120.774,162.752 124.181,163.882 123.051 C 163.980 122.953,163.682 122.753,163.219 122.606 C 161.692 122.122,160.991 120.578,161.763 119.400 C 162.124 118.850,162.328 118.400,162.218 118.400 C 162.108 118.400,161.738 118.828,161.395 119.351 M182.883 118.740 C 182.097 119.239,182.384 126.077,183.200 126.298 C 183.662 126.423,183.681 126.377,183.283 126.096 C 182.913 125.835,182.799 124.775,182.883 122.366 L 183.000 119.000 185.000 118.763 L 187.000 118.526 185.200 118.469 C 184.210 118.438,183.168 118.560,182.883 118.740 M207.740 118.706 C 207.487 118.868,208.435 119.004,209.847 119.008 C 211.259 119.012,212.096 118.890,211.707 118.736 C 210.756 118.360,208.311 118.341,207.740 118.706 M214.341 120.704 C 215.144 121.531,215.878 122.158,215.973 122.098 C 216.199 121.954,213.528 119.200,213.163 119.200 C 213.009 119.200,213.539 119.877,214.341 120.704 M168.018 119.800 C 167.993 121.452,172.908 121.841,173.073 120.200 C 173.136 119.577,173.108 119.555,172.948 120.100 C 172.788 120.643,172.303 120.800,170.791 120.800 C 169.355 120.800,168.732 120.615,168.432 120.100 C 168.208 119.715,168.022 119.580,168.018 119.800 M231.291 128.100 C 231.207 136.156,231.252 136.800,231.900 136.794 C 232.390 136.790,232.452 136.694,232.108 136.475 C 231.751 136.249,231.585 133.866,231.500 127.782 L 231.383 119.400 231.291 128.100 M156.056 120.400 C 156.056 120.730,156.211 121.360,156.400 121.800 C 156.617 122.304,156.744 122.378,156.744 122.000 C 156.744 121.670,156.589 121.040,156.400 120.600 C 156.183 120.096,156.056 120.022,156.056 120.400 M203.673 121.800 C 203.422 122.350,203.283 122.800,203.363 122.800 C 203.443 122.800,203.803 122.350,204.163 121.800 C 204.524 121.250,204.663 120.800,204.473 120.800 C 204.284 120.800,203.923 121.250,203.673 121.800 M221.044 122.600 C 221.373 124.071,221.602 124.390,221.594 123.367 C 221.591 122.945,221.405 122.330,221.182 122.000 C 220.885 121.562,220.848 121.724,221.044 122.600 M189.516 124.313 L 188.832 125.800 189.616 124.856 C 190.047 124.336,190.400 123.661,190.400 123.356 C 190.400 122.533,190.270 122.673,189.516 124.313 M197.800 124.400 C 197.646 125.310,197.604 126.138,197.707 126.240 C 197.810 126.343,198.013 125.677,198.160 124.760 C 198.307 123.843,198.348 123.015,198.253 122.920 C 198.158 122.824,197.954 123.490,197.800 124.400 M216.200 125.600 C 216.200 127.098,216.332 128.116,216.494 127.862 C 216.656 127.608,216.788 126.590,216.788 125.600 C 216.788 124.610,216.656 123.592,216.494 123.338 C 216.332 123.084,216.200 124.102,216.200 125.600 M165.000 123.600 C 165.440 123.789,166.070 123.944,166.400 123.944 C 166.778 123.944,166.704 123.817,166.200 123.600 C 165.760 123.411,165.130 123.256,164.800 123.256 C 164.422 123.256,164.496 123.383,165.000 123.600 M202.920 125.600 C 202.920 126.810,202.995 127.305,203.087 126.700 C 203.178 126.095,203.178 125.105,203.087 124.500 C 202.995 123.895,202.920 124.390,202.920 125.600 M158.400 125.127 C 158.400 125.316,158.850 125.677,159.400 125.927 C 159.950 126.178,160.400 126.317,160.400 126.237 C 160.400 126.157,159.950 125.797,159.400 125.437 C 158.850 125.076,158.400 124.937,158.400 125.127 M170.848 125.774 C 171.636 126.310,172.512 127.306,172.795 127.987 C 173.077 128.668,173.387 129.147,173.483 129.050 C 174.097 128.436,170.899 124.800,169.745 124.800 C 169.563 124.800,170.059 125.238,170.848 125.774 M186.800 126.000 C 185.976 126.264,185.941 126.326,186.600 126.354 C 187.040 126.373,187.670 126.213,188.000 126.000 C 188.701 125.547,188.214 125.547,186.800 126.000 M221.246 127.667 C 221.221 128.034,221.096 128.664,220.970 129.067 C 220.752 129.762,220.763 129.763,221.197 129.087 C 221.448 128.696,221.573 128.066,221.473 127.687 C 221.311 127.068,221.288 127.066,221.246 127.667 M192.011 128.620 C 191.247 129.159,190.797 129.599,191.011 129.598 C 191.225 129.597,191.940 129.153,192.600 128.612 C 194.141 127.349,193.805 127.353,192.011 128.620 M167.300 128.846 C 168.522 129.758,168.748 131.213,167.790 132.008 C 167.455 132.286,167.277 132.610,167.394 132.728 C 167.740 133.074,168.773 131.473,168.787 130.570 C 168.800 129.741,167.283 127.989,166.574 128.013 C 166.368 128.020,166.695 128.395,167.300 128.846 M203.526 129.013 C 204.079 130.112,206.004 132.003,206.555 131.988 C 206.800 131.981,206.696 131.798,206.324 131.581 C 205.952 131.364,205.078 130.515,204.382 129.693 C 203.686 128.872,203.301 128.566,203.526 129.013 M214.205 130.565 C 213.328 131.425,212.968 131.937,213.405 131.701 C 214.294 131.223,216.230 129.259,215.968 129.102 C 215.876 129.046,215.082 129.704,214.205 130.565 M156.136 130.222 C 156.005 130.564,156.090 131.239,156.326 131.722 C 156.699 132.485,156.726 132.429,156.528 131.300 L 156.300 130.000 158.503 130.000 C 160.439 130.000,160.735 130.107,160.937 130.883 C 161.064 131.368,161.280 131.653,161.417 131.517 C 161.553 131.380,161.464 130.893,161.218 130.434 C 160.642 129.358,156.534 129.186,156.136 130.222 M188.800 130.000 C 187.976 130.264,187.941 130.326,188.600 130.354 C 189.040 130.373,189.670 130.213,190.000 130.000 C 190.701 129.547,190.214 129.547,188.800 130.000 M220.191 130.828 C 220.036 131.317,219.171 132.545,218.269 133.558 L 216.628 135.400 218.148 134.000 C 219.662 132.606,221.033 130.500,220.666 130.133 C 220.560 130.027,220.346 130.339,220.191 130.828 M182.606 130.900 C 182.311 131.773,182.188 136.776,182.469 136.482 C 182.724 136.214,183.124 130.397,182.887 130.399 C 182.826 130.400,182.699 130.625,182.606 130.900 M199.200 131.376 C 199.200 131.838,201.193 134.120,202.157 134.761 C 202.621 135.069,202.190 134.443,201.200 133.368 C 200.210 132.294,199.355 131.337,199.300 131.241 C 199.245 131.145,199.200 131.206,199.200 131.376 M207.800 132.390 C 208.564 132.728,211.114 132.957,210.767 132.656 C 210.675 132.576,209.790 132.404,208.800 132.273 C 207.598 132.114,207.266 132.153,207.800 132.390 M156.800 133.163 C 156.800 133.528,159.554 136.199,159.698 135.973 C 159.758 135.878,159.131 135.144,158.304 134.341 C 157.477 133.539,156.800 133.009,156.800 133.163 M164.300 133.082 C 164.795 133.178,165.605 133.178,166.100 133.082 C 166.595 132.987,166.190 132.909,165.200 132.909 C 164.210 132.909,163.805 132.987,164.300 133.082 M163.907 137.090 C 164.626 137.179,165.706 137.177,166.307 137.086 C 166.908 136.995,166.320 136.922,165.000 136.924 C 163.680 136.926,163.188 137.001,163.907 137.090 M208.500 137.087 C 209.105 137.178,210.095 137.178,210.700 137.087 C 211.305 136.995,210.810 136.920,209.600 136.920 C 208.390 136.920,207.895 136.995,208.500 137.087 M124.315 189.128 C 123.938 189.278,125.146 189.400,127.000 189.400 C 128.854 189.400,130.062 189.278,129.685 189.128 C 129.308 188.979,128.100 188.856,127.000 188.856 C 125.900 188.856,124.692 188.979,124.315 189.128 M31.750 189.787 C 31.626 190.110,31.617 190.605,31.731 190.887 C 31.844 191.169,31.951 190.975,31.968 190.455 C 31.996 189.640,32.164 189.533,33.179 189.682 C 33.827 189.777,34.267 189.708,34.155 189.528 C 33.811 188.970,31.988 189.167,31.750 189.787 M44.480 189.680 C 44.216 189.944,44.000 190.338,44.000 190.556 C 44.000 190.775,44.225 190.660,44.500 190.301 C 44.775 189.943,45.540 189.576,46.200 189.485 L 47.400 189.320 46.180 189.260 C 45.509 189.227,44.744 189.416,44.480 189.680 M58.599 189.480 C 59.258 189.586,59.947 189.881,60.129 190.136 C 60.353 190.449,60.409 190.405,60.300 190.000 C 60.200 189.631,59.612 189.378,58.769 189.344 C 57.515 189.292,57.501 189.303,58.599 189.480 M66.100 189.476 C 66.485 189.576,67.115 189.576,67.500 189.476 C 67.885 189.375,67.570 189.293,66.800 189.293 C 66.030 189.293,65.715 189.375,66.100 189.476 M73.754 189.777 C 73.429 190.623,73.724 191.718,74.310 191.837 C 74.591 191.894,74.636 191.849,74.410 191.737 C 74.184 191.625,74.000 191.091,74.000 190.550 L 74.000 189.567 81.762 189.684 C 86.032 189.748,89.441 189.665,89.339 189.500 C 88.956 188.883,73.995 189.148,73.754 189.777 M95.459 189.505 C 95.340 189.697,95.766 189.778,96.406 189.684 L 97.570 189.514 97.685 193.424 C 97.775 196.493,97.929 197.370,98.400 197.498 C 98.827 197.614,98.861 197.562,98.516 197.317 C 98.212 197.100,97.989 195.570,97.916 193.186 C 97.801 189.420,97.794 189.399,96.738 189.277 C 96.154 189.209,95.578 189.312,95.459 189.505 M109.493 189.487 C 110.383 189.651,110.386 189.681,110.504 199.126 L 110.621 208.600 110.611 199.000 L 110.600 189.400 109.600 189.361 C 108.744 189.328,108.729 189.347,109.493 189.487 M143.700 189.476 C 144.085 189.576,144.715 189.576,145.100 189.476 C 145.485 189.375,145.170 189.293,144.400 189.293 C 143.630 189.293,143.315 189.375,143.700 189.476 M155.680 189.680 C 155.339 190.021,155.225 192.020,155.285 196.580 L 155.370 203.000 155.585 196.400 L 155.800 189.800 157.063 189.802 C 157.757 189.803,158.242 189.668,158.139 189.502 C 157.847 189.030,156.212 189.148,155.680 189.680 M171.544 189.495 L 179.288 189.618 179.113 190.809 C 179.017 191.464,179.099 192.000,179.295 192.000 C 179.490 192.000,179.594 191.415,179.525 190.700 L 179.400 189.400 171.600 189.386 L 163.800 189.373 171.544 189.495 M331.500 189.489 C 332.215 189.578,333.385 189.578,334.100 189.489 C 334.815 189.401,334.230 189.328,332.800 189.328 C 331.370 189.328,330.785 189.401,331.500 189.489 M121.400 190.348 C 120.740 190.758,119.750 191.607,119.200 192.236 C 118.360 193.194,118.462 193.155,119.832 191.989 C 120.729 191.225,121.809 190.386,122.232 190.124 C 122.654 189.861,122.910 189.637,122.800 189.625 C 122.690 189.613,122.060 189.938,121.400 190.348 M131.800 190.092 C 132.240 190.371,133.383 191.387,134.340 192.349 C 135.298 193.311,135.898 193.761,135.675 193.349 C 135.112 192.311,133.199 190.589,132.000 190.041 C 131.136 189.646,131.109 189.653,131.800 190.092 M238.267 189.867 C 237.897 190.236,237.929 208.309,238.300 208.538 C 238.465 208.640,238.600 204.421,238.600 199.162 C 238.600 193.903,238.585 189.600,238.567 189.600 C 238.548 189.600,238.413 189.720,238.267 189.867 M248.433 189.744 C 248.525 189.823,249.140 190.008,249.800 190.156 C 250.676 190.352,250.838 190.315,250.400 190.018 C 249.860 189.653,248.032 189.398,248.433 189.744 M257.692 199.100 C 257.607 208.109,257.650 208.800,258.300 208.794 C 258.791 208.790,258.853 208.694,258.508 208.475 C 258.146 208.245,257.984 205.667,257.900 198.781 L 257.785 189.400 257.692 199.100 M273.780 190.109 C 273.308 191.337,273.801 208.534,274.310 208.637 C 274.590 208.694,274.636 208.649,274.410 208.537 C 273.769 208.219,273.856 190.125,274.500 189.865 C 274.892 189.707,274.889 189.656,274.487 189.632 C 274.206 189.614,273.887 189.829,273.780 190.109 M286.739 191.600 L 286.877 193.600 283.262 193.600 C 281.274 193.600,279.563 193.735,279.460 193.900 C 279.358 194.065,281.012 194.110,283.137 194.000 L 287.000 193.800 287.121 191.700 C 287.187 190.545,287.097 189.600,286.921 189.600 C 286.744 189.600,286.662 190.500,286.739 191.600 M290.580 190.109 C 290.108 191.337,290.601 208.534,291.110 208.637 C 291.390 208.694,291.435 208.649,291.210 208.537 C 290.569 208.219,290.656 190.125,291.300 189.865 C 291.692 189.707,291.689 189.656,291.287 189.632 C 291.006 189.614,290.687 189.829,290.580 190.109 M296.396 191.700 C 297.341 192.965,298.188 194.000,298.277 194.000 C 298.565 194.000,296.089 190.572,295.372 189.977 C 294.989 189.660,295.450 190.435,296.396 191.700 M306.800 191.400 C 306.119 192.390,305.652 193.200,305.762 193.200 C 305.872 193.200,306.519 192.390,307.200 191.400 C 307.881 190.410,308.348 189.600,308.238 189.600 C 308.128 189.600,307.481 190.410,306.800 191.400 M312.400 198.967 C 312.400 206.086,312.280 208.382,311.900 208.535 C 311.601 208.656,311.682 208.750,312.100 208.768 C 312.748 208.798,312.800 208.088,312.800 199.200 C 312.800 193.920,312.710 189.600,312.600 189.600 C 312.490 189.600,312.400 193.815,312.400 198.967 M316.892 199.100 C 316.807 208.109,316.850 208.800,317.500 208.794 C 317.991 208.790,318.053 208.694,317.708 208.475 C 317.346 208.245,317.184 205.667,317.100 198.781 L 316.985 189.400 316.892 199.100 M336.033 189.728 C 336.669 190.215,339.200 191.536,339.200 191.381 C 339.200 191.113,336.682 189.603,336.233 189.601 C 336.032 189.601,335.942 189.657,336.033 189.728 M344.180 190.109 C 343.708 191.337,344.201 208.534,344.710 208.637 C 344.990 208.694,345.036 208.649,344.810 208.537 C 344.169 208.219,344.256 190.125,344.900 189.865 C 345.292 189.707,345.289 189.656,344.887 189.632 C 344.606 189.614,344.287 189.829,344.180 190.109 M360.790 189.863 C 361.052 189.993,361.200 193.362,361.200 199.200 C 361.200 205.038,361.052 208.407,360.790 208.537 C 360.565 208.649,360.610 208.694,360.890 208.637 C 361.286 208.556,361.400 206.444,361.400 199.200 C 361.400 191.956,361.286 189.844,360.890 189.763 C 360.610 189.707,360.565 189.751,360.790 189.863 M68.172 199.200 C 68.172 204.370,68.229 206.485,68.299 203.900 C 68.368 201.315,68.368 197.085,68.299 194.500 C 68.229 191.915,68.172 194.030,68.172 199.200 M252.326 191.512 C 252.916 192.124,253.476 192.574,253.568 192.511 C 253.799 192.355,251.935 190.400,251.556 190.400 C 251.388 190.400,251.735 190.901,252.326 191.512 M126.105 191.887 C 126.714 191.979,127.614 191.977,128.105 191.882 C 128.597 191.787,128.100 191.711,127.000 191.714 C 125.900 191.717,125.497 191.795,126.105 191.887 M79.917 200.096 C 79.981 204.550,80.161 208.321,80.317 208.477 C 80.472 208.634,80.548 204.990,80.485 200.381 C 80.421 195.771,80.241 192.000,80.085 192.000 C 79.928 191.999,79.852 195.643,79.917 200.096 M82.979 192.511 C 82.871 192.792,82.832 196.617,82.892 201.011 L 83.002 209.000 83.201 200.500 C 83.396 192.171,83.377 191.474,82.979 192.511 M172.879 200.500 C 172.960 209.100,173.108 208.107,173.297 197.699 C 173.353 194.564,173.265 191.999,173.100 191.999 C 172.935 192.000,172.836 195.825,172.879 200.500 M132.229 194.038 C 132.873 194.829,133.481 195.408,133.579 195.325 C 133.678 195.242,133.151 194.595,132.409 193.887 L 131.058 192.600 132.229 194.038 M332.907 193.492 C 333.954 193.601,334.609 193.947,335.053 194.625 C 336.360 196.620,341.223 195.863,340.351 193.800 C 340.053 193.094,340.024 193.117,340.107 194.000 C 340.195 194.950,340.084 195.006,337.900 195.120 C 336.585 195.189,335.600 195.072,335.600 194.849 C 335.600 193.964,334.286 193.203,332.871 193.267 L 331.400 193.334 332.907 193.492 M243.361 195.297 L 243.400 197.000 245.502 197.035 L 247.605 197.070 245.624 196.915 L 243.644 196.760 243.483 195.177 L 243.322 193.594 243.361 195.297 M248.009 194.331 C 248.258 194.843,248.360 195.528,248.235 195.852 C 248.108 196.183,248.182 196.335,248.405 196.197 C 248.978 195.843,248.890 195.066,248.178 194.176 C 247.585 193.436,247.577 193.443,248.009 194.331 M253.693 194.800 C 253.693 195.570,253.775 195.885,253.876 195.500 C 253.976 195.115,253.976 194.485,253.876 194.100 C 253.775 193.715,253.693 194.030,253.693 194.800 M303.296 196.385 C 302.052 198.183,301.777 198.279,300.675 197.300 C 299.908 196.619,299.901 196.624,300.440 197.500 C 301.266 198.845,302.105 198.600,303.515 196.600 C 304.213 195.610,304.696 194.800,304.588 194.800 C 304.480 194.800,303.899 195.513,303.296 196.385 M117.049 196.215 C 116.912 196.573,116.818 197.256,116.841 197.733 C 116.867 198.281,117.003 198.086,117.210 197.203 C 117.560 195.716,117.465 195.133,117.049 196.215 M349.683 196.000 C 349.927 196.797,355.676 196.881,355.837 196.090 C 355.894 195.810,355.849 195.764,355.737 195.990 C 355.444 196.579,350.670 196.504,350.030 195.900 C 349.602 195.496,349.535 195.516,349.683 196.000 M136.924 199.000 C 136.926 200.320,137.001 200.812,137.090 200.093 C 137.179 199.374,137.177 198.294,137.086 197.693 C 136.995 197.092,136.922 197.680,136.924 199.000 M285.939 198.800 L 286.077 200.800 282.862 200.800 C 281.094 200.800,279.562 200.938,279.458 201.106 C 279.271 201.408,284.932 201.305,285.900 200.989 C 286.439 200.812,286.631 196.800,286.100 196.800 C 285.935 196.800,285.862 197.700,285.939 198.800 M333.800 197.200 C 334.240 197.389,334.870 197.544,335.200 197.544 C 335.578 197.544,335.504 197.417,335.000 197.200 C 334.560 197.011,333.930 196.856,333.600 196.856 C 333.222 196.856,333.296 196.983,333.800 197.200 M119.720 199.200 C 119.720 200.410,119.795 200.905,119.887 200.300 C 119.978 199.695,119.978 198.705,119.887 198.100 C 119.795 197.495,119.720 197.990,119.720 199.200 M296.022 199.500 C 296.034 199.665,296.619 200.246,297.322 200.792 C 298.304 201.554,298.461 201.601,298.000 200.994 C 296.753 199.350,295.967 198.757,296.022 199.500 M306.087 200.009 C 305.619 200.759,305.641 200.781,306.391 200.313 C 306.836 200.035,307.200 199.671,307.200 199.504 C 307.200 198.926,306.591 199.203,306.087 200.009 M97.843 200.633 C 97.709 200.981,97.635 203.006,97.678 205.133 L 97.757 209.000 97.978 204.800 L 98.200 200.600 103.100 200.600 C 105.796 200.600,108.001 200.465,108.000 200.300 C 107.999 199.637,98.101 199.961,97.843 200.633 M116.868 200.600 C 116.862 201.040,117.011 201.760,117.200 202.200 C 117.638 203.219,117.638 202.168,117.200 200.800 C 116.943 199.996,116.877 199.957,116.868 200.600 M145.606 201.433 C 145.609 202.075,145.784 202.870,145.995 203.200 C 146.255 203.609,146.299 203.290,146.132 202.200 C 145.829 200.223,145.598 199.886,145.606 201.433 M158.059 201.400 C 158.020 202.060,157.896 203.050,157.783 203.600 L 157.577 204.600 158.008 203.614 C 158.244 203.072,158.368 202.082,158.283 201.414 L 158.128 200.200 158.059 201.400 M307.267 204.500 C 307.230 206.865,307.335 208.800,307.500 208.801 C 307.665 208.801,307.751 207.496,307.691 205.901 C 307.493 200.653,307.336 200.132,307.267 204.500 M243.467 201.067 C 243.093 201.441,243.132 204.800,243.511 204.800 C 243.681 204.800,243.750 204.059,243.664 203.152 C 243.559 202.052,243.688 201.390,244.053 201.159 C 244.354 200.968,244.405 200.809,244.167 200.806 C 243.928 200.803,243.613 200.920,243.467 201.067 M351.500 201.489 C 352.215 201.578,353.385 201.578,354.100 201.489 C 354.815 201.401,354.230 201.328,352.800 201.328 C 351.370 201.328,350.785 201.401,351.500 201.489 M334.657 202.000 C 334.908 202.330,335.202 202.960,335.311 203.400 C 335.497 204.160,335.510 204.157,335.554 203.349 C 335.579 202.881,335.285 202.251,334.900 201.949 C 334.291 201.472,334.260 201.478,334.657 202.000 M39.452 202.608 C 39.317 202.962,39.024 203.139,38.803 203.002 C 38.581 202.865,38.400 202.933,38.400 203.153 C 38.400 203.976,39.176 203.992,39.612 203.177 C 39.861 202.712,39.982 202.249,39.882 202.148 C 39.781 202.048,39.588 202.255,39.452 202.608 M53.232 202.543 C 53.211 203.033,52.996 203.207,52.600 203.055 C 51.961 202.810,51.758 203.403,52.355 203.772 C 52.849 204.078,53.720 202.938,53.469 202.313 C 53.346 202.006,53.250 202.099,53.232 202.543 M325.599 202.700 C 325.599 202.865,326.613 202.937,327.852 202.860 C 329.917 202.732,330.188 202.815,331.086 203.860 L 332.066 205.000 331.206 203.700 C 330.381 202.453,325.601 201.601,325.599 202.700 M132.642 203.793 C 132.284 204.339,131.318 205.141,130.496 205.575 C 129.673 206.009,129.198 206.373,129.441 206.382 C 130.120 206.410,132.448 204.706,133.108 203.700 C 133.432 203.205,133.606 202.800,133.495 202.800 C 133.383 202.800,132.999 203.247,132.642 203.793 M117.601 203.440 C 117.600 203.964,119.892 207.200,120.265 207.200 C 120.407 207.200,120.246 206.885,119.906 206.500 C 119.565 206.115,118.908 205.170,118.445 204.400 C 117.982 203.630,117.602 203.198,117.601 203.440 M263.199 203.700 C 263.200 203.865,264.910 204.000,267.000 204.000 L 270.800 204.000 270.800 206.167 C 270.800 207.526,270.614 208.409,270.300 208.535 C 270.008 208.653,270.100 208.750,270.519 208.768 C 271.150 208.796,271.224 208.493,271.119 206.300 L 271.000 203.800 267.099 203.600 C 264.954 203.490,263.199 203.535,263.199 203.700 M121.402 204.341 C 122.177 205.257,124.037 206.416,124.680 206.384 C 124.856 206.375,124.460 206.083,123.800 205.735 C 123.140 205.387,122.151 204.720,121.603 204.251 L 120.606 203.400 121.402 204.341 M153.734 205.051 C 153.038 205.793,152.609 206.400,152.780 206.400 C 153.204 206.400,155.200 204.375,155.200 203.945 C 155.200 203.489,155.198 203.491,153.734 205.051 M279.199 204.073 C 279.200 204.224,280.992 204.404,283.182 204.473 C 285.372 204.543,287.037 204.477,286.882 204.327 C 286.507 203.964,279.198 203.723,279.199 204.073 M146.400 204.356 C 146.400 204.735,148.355 206.599,148.511 206.368 C 148.574 206.276,148.124 205.716,147.512 205.126 C 146.901 204.535,146.400 204.188,146.400 204.356 M253.641 205.724 C 253.369 206.231,252.664 206.947,252.073 207.313 C 251.483 207.679,251.211 207.984,251.469 207.989 C 252.018 208.002,254.400 205.710,254.400 205.169 C 254.400 204.570,254.167 204.740,253.641 205.724 M156.226 206.700 C 155.362 207.805,155.293 207.990,155.963 207.404 C 156.765 206.704,157.823 205.200,157.514 205.200 C 157.451 205.200,156.872 205.875,156.226 206.700 M144.364 206.333 C 144.580 206.736,145.071 207.321,145.455 207.633 C 145.887 207.984,145.790 207.704,145.201 206.900 C 144.151 205.465,143.757 205.198,144.364 206.333 M339.236 206.957 C 338.981 207.263,338.234 207.738,337.574 208.011 C 336.914 208.284,336.453 208.587,336.550 208.683 C 336.807 208.941,338.973 207.756,339.578 207.026 C 339.864 206.682,340.008 206.400,339.898 206.400 C 339.788 206.400,339.490 206.651,339.236 206.957 M248.800 208.400 C 247.416 208.691,247.414 208.695,248.600 208.741 C 249.260 208.767,250.070 208.613,250.400 208.400 C 251.066 207.970,250.845 207.970,248.800 208.400 M125.373 209.283 C 126.239 209.467,127.679 209.469,128.573 209.286 C 129.967 209.001,129.741 208.953,127.000 208.951 C 124.299 208.949,124.046 209.001,125.373 209.283 M148.033 208.947 C 148.125 209.028,148.920 209.204,149.800 209.338 C 150.915 209.507,151.158 209.471,150.600 209.219 C 149.832 208.871,147.690 208.644,148.033 208.947 M332.505 209.087 C 333.114 209.179,334.014 209.177,334.505 209.082 C 334.997 208.987,334.500 208.911,333.400 208.914 C 332.300 208.917,331.897 208.995,332.505 209.087 M11.462 244.100 C 11.564 244.265,53.926 244.400,105.600 244.400 C 157.274 244.400,199.636 244.265,199.738 244.100 C 199.840 243.935,157.478 243.800,105.600 243.800 C 53.722 243.800,11.360 243.935,11.462 244.100 M187.491 262.289 C 188.201 262.377,189.461 262.379,190.291 262.292 C 191.121 262.205,190.540 262.133,189.000 262.131 C 187.460 262.129,186.781 262.200,187.491 262.289 M205.200 273.600 C 205.200 279.760,205.335 284.800,205.500 284.800 C 205.665 284.800,205.800 279.760,205.800 273.600 C 205.800 267.440,205.665 262.400,205.500 262.400 C 205.335 262.400,205.200 267.440,205.200 273.600 M216.400 262.800 C 217.768 263.238,218.819 263.238,217.800 262.800 C 217.360 262.611,216.640 262.462,216.200 262.468 C 215.557 262.477,215.596 262.543,216.400 262.800 M220.547 264.901 C 221.456 265.836,222.278 266.553,222.374 266.494 C 222.598 266.354,219.526 263.200,219.166 263.200 C 219.016 263.200,219.638 263.965,220.547 264.901 M198.574 267.000 C 199.967 269.052,200.252 269.295,199.477 267.771 C 199.134 267.095,198.549 266.290,198.178 265.982 C 197.807 265.674,197.985 266.132,198.574 267.000 M186.940 266.706 C 186.687 266.868,187.635 267.004,189.047 267.008 C 190.459 267.012,191.296 266.890,190.907 266.736 C 189.956 266.360,187.511 266.341,186.940 266.706 M210.169 266.935 C 210.056 267.230,210.026 268.895,210.102 270.635 L 210.239 273.800 210.320 270.256 L 210.400 266.713 213.372 266.863 C 215.007 266.945,216.132 266.878,215.872 266.712 C 215.017 266.169,210.394 266.349,210.169 266.935 M193.541 268.704 C 194.344 269.531,195.078 270.158,195.173 270.098 C 195.399 269.954,192.728 267.200,192.363 267.200 C 192.209 267.200,192.739 267.877,193.541 268.704 M217.070 268.005 C 217.329 268.338,217.614 269.328,217.703 270.205 L 217.866 271.800 217.933 270.149 C 217.980 268.993,217.790 268.333,217.300 267.949 C 216.689 267.470,216.660 267.477,217.070 268.005 M222.682 269.221 C 222.808 270.199,222.975 271.075,223.055 271.167 C 223.381 271.542,223.160 268.555,222.821 268.021 C 222.584 267.646,222.535 268.070,222.682 269.221 M182.873 269.800 C 182.622 270.350,182.483 270.800,182.563 270.800 C 182.643 270.800,183.003 270.350,183.363 269.800 C 183.724 269.250,183.863 268.800,183.673 268.800 C 183.484 268.800,183.123 269.250,182.873 269.800 M200.244 270.600 C 200.573 272.071,200.802 272.390,200.794 271.367 C 200.791 270.945,200.605 270.330,200.382 270.000 C 200.085 269.562,200.048 269.724,200.244 270.600 M177.000 272.400 C 176.846 273.310,176.804 274.138,176.907 274.240 C 177.010 274.343,177.213 273.677,177.360 272.760 C 177.507 271.843,177.548 271.015,177.453 270.920 C 177.358 270.824,177.154 271.490,177.000 272.400 M195.400 273.600 C 195.400 275.098,195.532 276.116,195.694 275.862 C 195.856 275.608,195.988 274.590,195.988 273.600 C 195.988 272.610,195.856 271.592,195.694 271.338 C 195.532 271.084,195.400 272.102,195.400 273.600 M182.120 273.600 C 182.120 274.810,182.195 275.305,182.287 274.700 C 182.378 274.095,182.378 273.105,182.287 272.500 C 182.195 271.895,182.120 272.390,182.120 273.600 M216.200 272.827 C 215.540 273.250,215.205 273.597,215.456 273.598 C 215.706 273.599,216.336 273.246,216.856 272.813 C 218.045 271.823,217.759 271.829,216.200 272.827 M200.446 275.667 C 200.421 276.034,200.296 276.664,200.170 277.067 C 199.952 277.762,199.963 277.763,200.397 277.087 C 200.648 276.696,200.773 276.066,200.673 275.687 C 200.511 275.068,200.488 275.066,200.446 275.667 M182.726 277.013 C 183.279 278.112,185.204 280.003,185.755 279.988 C 186.000 279.981,185.896 279.798,185.524 279.581 C 185.152 279.364,184.278 278.515,183.582 277.693 C 182.886 276.872,182.501 276.566,182.726 277.013 M193.405 278.565 C 192.528 279.425,192.168 279.937,192.605 279.701 C 193.494 279.223,195.430 277.259,195.168 277.102 C 195.076 277.046,194.282 277.704,193.405 278.565 M210.267 277.867 C 210.120 278.013,210.000 279.528,210.000 281.233 C 210.000 282.951,209.817 284.424,209.590 284.537 C 209.365 284.649,209.410 284.694,209.690 284.638 C 210.069 284.563,210.938 277.590,210.567 277.599 C 210.548 277.600,210.413 277.720,210.267 277.867 M199.391 278.828 C 199.236 279.317,198.371 280.545,197.469 281.558 L 195.828 283.400 197.348 282.000 C 198.862 280.606,200.233 278.500,199.866 278.133 C 199.760 278.027,199.546 278.339,199.391 278.828 M219.800 279.200 C 220.141 279.860,220.511 280.400,220.621 280.400 C 220.731 280.400,220.541 279.860,220.200 279.200 C 219.859 278.540,219.489 278.000,219.379 278.000 C 219.269 278.000,219.459 278.540,219.800 279.200 M178.400 279.376 C 178.400 279.838,180.393 282.120,181.357 282.761 C 181.821 283.069,181.390 282.443,180.400 281.368 C 179.410 280.294,178.555 279.337,178.500 279.241 C 178.445 279.145,178.400 279.206,178.400 279.376 M187.000 280.390 C 187.764 280.728,190.314 280.957,189.967 280.656 C 189.875 280.576,188.990 280.404,188.000 280.273 C 186.798 280.114,186.466 280.153,187.000 280.390 M221.799 282.562 C 222.565 283.869,222.698 284.376,222.315 284.530 C 221.989 284.661,222.057 284.748,222.500 284.768 C 222.885 284.786,223.200 284.681,223.200 284.535 C 223.200 284.144,221.200 280.800,220.966 280.800 C 220.856 280.800,221.231 281.593,221.799 282.562 M216.587 283.175 C 216.921 283.821,217.376 284.461,217.598 284.599 C 217.820 284.736,217.623 284.207,217.161 283.424 C 216.148 281.707,215.735 281.528,216.587 283.175 M187.700 285.087 C 188.305 285.178,189.295 285.178,189.900 285.087 C 190.505 284.995,190.010 284.920,188.800 284.920 C 187.590 284.920,187.095 284.995,187.700 285.087 " stroke="none" fill="#7c7c7c" fill-rule="evenodd"></path></g></svg>